<svg width="46" height="51" viewBox="0 0 46 51" fill="none" xmlns="http://www.w3.org/2000/svg">
<path d="M45.53 6.85591L43.3506 4.93688L45.53 3.01824C45.8689 2.71941 45.9848 2.25366 45.8257 1.8311C45.6657 1.40815 45.2708 1.135 44.8191 1.135H35.8005V0.747458C35.8005 0.334625 35.4659 0 35.0531 0C34.6403 0 34.3056 0.334625 34.3056 0.747458V10.8282L28.1668 14.1616C28.133 13.8916 28.052 13.6262 27.924 13.3764L27.0591 11.6877C26.4653 10.5282 25.0389 10.0687 23.8801 10.6621L23.2113 11.0045C22.6494 11.2924 22.2335 11.7811 22.0397 12.3819C21.8459 12.9823 21.8977 13.6223 22.1856 14.1838L23.0506 15.8729C23.2525 16.267 23.551 16.5791 23.9019 16.7978C23.4428 17.416 23.2249 18.1763 23.0008 18.9662L22.8397 19.5366C22.7272 19.9339 22.9584 20.3471 23.3556 20.4592C23.4233 20.4786 23.4918 20.4876 23.5591 20.4876C23.8852 20.4876 24.1848 20.2728 24.2782 19.9432L24.4393 19.374C24.7669 18.2188 24.9681 17.6001 25.6085 17.2522L26.7567 16.6285L26.8984 16.5561C26.9454 16.532 26.9894 16.5048 27.0342 16.4779L35.2177 12.034C35.1659 13.057 34.6154 14.0235 33.7088 14.5741L28.3871 17.8075C28.3808 17.811 28.3746 17.8145 28.3688 17.8184L26.7124 18.8246C26.3599 19.039 26.2474 19.4989 26.4618 19.8518C26.6637 20.1845 27.084 20.3028 27.4268 20.1358L26.17 23.935L25.2513 24.3116L22.7533 25.3354L23.4731 22.7907C23.5852 22.3934 23.3545 21.9802 22.9572 21.8677C22.5595 21.7549 22.1467 21.9864 22.0343 22.3837L20.8969 26.4058C20.8821 26.4575 20.8724 26.5143 20.8701 26.5684L20.5724 32.036C20.5635 32.2446 20.6078 32.6387 20.5113 32.8422L17.2055 39.797H14.8032C13.3959 39.797 12.2512 40.9417 12.2512 42.3487V44.5062C11.929 44.3588 11.5714 44.2763 11.1944 44.2763H5.09369C3.68671 44.2763 2.54198 45.4206 2.54198 46.828V49.505H0.747458C0.334625 49.505 0 49.8396 0 50.2524C0 50.6653 0.334625 50.9999 0.747458 50.9999H44.8183C45.2311 50.9999 45.5658 50.6653 45.5658 50.2524C45.5658 49.8396 45.2311 49.505 44.8183 49.505H42.8744V30.2388C42.8744 28.8318 41.7296 27.6871 40.3227 27.6871H35.8005V14.6472C36.6293 13.5239 36.9363 12.0515 36.5515 10.6523C36.4912 10.4325 36.3336 10.252 36.1235 10.1629C36.0204 10.1189 35.9099 10.0994 35.8005 10.1037V8.73915H44.8187C45.2708 8.73915 45.6657 8.466 45.8253 8.04344C45.9848 7.62088 45.8689 7.15474 45.53 6.85591ZM23.4626 12.841C23.5338 12.6204 23.6864 12.4406 23.8926 12.3352L24.5614 11.9928C24.6875 11.9282 24.8221 11.8975 24.9552 11.8975C25.2704 11.8975 25.575 12.0698 25.7283 12.369L26.5937 14.0581C26.7956 14.4527 26.6649 14.9309 26.3058 15.1725L26.0622 15.3044L25.5482 15.5678C25.1229 15.7857 24.5992 15.6169 24.3813 15.1912L23.5159 13.5025C23.4105 13.2963 23.3914 13.0613 23.4626 12.841ZM21.9607 40.0269C21.7066 39.911 21.4304 39.8351 21.1401 39.8083L21.9607 38.7184V40.0269ZM25.5097 34.0041C25.8692 33.5734 25.9684 33.0702 26.0486 32.6648C26.0688 32.5683 26.4377 30.5536 26.4377 30.5536C26.4377 30.5536 26.7867 30.7711 26.8233 30.7866C26.8486 30.7979 26.8665 30.8228 26.8692 30.852L27.2758 34.9854H24.7708L25.5097 34.0041ZM29.9298 29.8785L29.2987 34.9819H28.7777L28.3571 30.7057C28.3034 30.1578 27.968 29.6796 27.4766 29.4419L26.7248 28.9653L27.2256 26.1898C27.2256 26.1898 29.3353 28.696 29.3843 28.7598C29.8209 29.3275 29.9703 29.5547 29.9298 29.8785ZM21.856 33.4959C22.007 33.0415 22.0771 32.5788 22.0654 32.1084L22.337 27.1217L25.7941 25.705L25.1657 29.1859C25.1638 29.1952 25.1618 29.2049 25.1607 29.2143L24.6408 32.0924C24.5731 32.3905 24.514 32.8426 24.328 33.0881L19.2771 39.797H18.8608L21.856 33.4959ZM4.0369 46.8276C4.0369 46.2451 4.51082 45.7712 5.09369 45.7712H11.1944C11.7772 45.7712 12.2515 46.2451 12.2515 46.8276V49.505H4.0369V46.8276ZM13.7461 46.8276V42.3487C13.7461 41.7658 14.2204 41.2919 14.8032 41.2919H20.9039C21.4868 41.2919 21.9607 41.7658 21.9607 42.3487V49.505H13.7465V46.8276H13.7461ZM41.3794 30.2388V49.505H33.1652V45.0233C33.1652 44.6105 32.8306 44.2759 32.4177 44.2759C32.0045 44.2759 31.6699 44.6105 31.6699 45.0233V49.505H23.4556V37.5367C23.4556 36.9542 23.9295 36.4803 24.5124 36.4803H30.6131C31.196 36.4803 31.6699 36.9542 31.6699 37.5367V41.2837C31.6699 41.6966 32.0045 42.0312 32.4173 42.0312C32.8306 42.0312 33.1648 41.6966 33.1648 41.2837V30.2388C33.1648 29.6559 33.6391 29.182 34.222 29.182H35.0453C35.0476 29.182 35.0504 29.1824 35.0531 29.1824C35.0554 29.1824 35.0581 29.182 35.0605 29.182H40.3223C40.9051 29.182 41.3794 29.6563 41.3794 30.2388ZM34.222 27.6871C32.815 27.6871 31.6703 28.8318 31.6703 30.2388V35.2153C31.4026 35.0932 31.1107 35.0157 30.8037 34.9932L31.4135 30.0625C31.5333 29.1014 31.043 28.4645 30.5691 27.8482C30.5189 27.7828 27.6135 24.333 27.6135 24.333L29.396 18.944L34.3056 15.9612V27.6871H34.222ZM35.8005 7.24384V2.63031H43.7082L42.0051 4.12989C41.7732 4.33417 41.6401 4.62832 41.6401 4.93727C41.6401 5.24621 41.7732 5.54037 42.0051 5.74465L43.7082 7.24423H35.8005V7.24384Z" fill="white"/>
</svg>
