<svg width="32" height="32" viewBox="0 0 32 32" fill="none" xmlns="http://www.w3.org/2000/svg">
<path d="M29.3067 13.4128C28.5928 13.4128 28.0141 13.9916 28.0141 14.7054V16.0074C28.0121 19.4035 26.6878 22.5956 24.2849 24.9956C21.8839 27.3939 18.6933 28.7144 15.2999 28.7144C15.2974 28.7144 15.2949 28.7144 15.2924 28.7144C8.28163 28.7104 2.58125 23.0036 2.58525 15.9928C2.58719 12.5967 3.91156 9.40456 6.31444 7.00444C8.7155 4.60619 11.9062 3.28569 15.2995 3.28569C15.302 3.28569 15.3045 3.28569 15.307 3.28569C17.099 3.28669 18.8376 3.65706 20.4745 4.38638C21.1268 4.677 21.8907 4.38381 22.1813 3.73175C22.4718 3.07969 22.1788 2.31556 21.5267 2.02494C19.5569 1.14725 17.4649 0.701627 15.3084 0.700439C15.3052 0.700439 15.3027 0.700439 15.2994 0.700439C11.2164 0.700439 7.3765 2.28969 4.48738 5.17544C1.596 8.06344 0.00237752 11.9046 2.52031e-06 15.9914C-0.00230998 20.078 1.58681 23.921 4.47494 26.8124C7.36306 29.7038 11.2042 31.2974 15.2909 31.2998C15.2941 31.2998 15.2966 31.2998 15.2999 31.2998C19.3829 31.2998 23.2228 29.7106 26.1119 26.8248C29.0033 23.9367 30.5969 20.0955 30.5993 16.0081V14.7055C30.5993 13.9916 30.0206 13.4128 29.3067 13.4128Z" fill="white"/>
<path d="M31.6214 2.48769C31.1166 1.98294 30.2981 1.98294 29.7933 2.48769L15.2996 16.9813L12.0116 13.6933C11.5068 13.1884 10.6883 13.1884 10.1836 13.6933C9.67876 14.1981 9.67876 15.0165 10.1836 15.5213L14.3857 19.7234C14.6381 19.9759 14.9689 20.1021 15.2998 20.1021C15.6306 20.1021 15.9614 19.9759 16.2138 19.7234L31.6214 4.31576C32.1262 3.81094 32.1262 2.99251 31.6214 2.48769Z" fill="white"/>
</svg>
