<svg width="34" height="34" viewBox="0 0 34 34" fill="none" xmlns="http://www.w3.org/2000/svg">
<path d="M12.9352 12.9754H13.6852V12.2254V8.36745C13.6852 5.98473 14.4327 4.09314 15.692 2.80098C16.9493 1.51086 18.7829 0.750131 21.089 0.75C21.0892 0.75 21.0894 0.75 21.0896 0.75L25.4408 0.756983V5.83404L22.5278 5.83508C22.5277 5.83508 22.5276 5.83508 22.5275 5.83508C21.4449 5.83512 20.5566 6.03848 19.9866 6.68418C19.4362 7.30761 19.3556 8.16098 19.3556 8.95496V12.2254V12.9754H20.1056H25.2342L25.2321 18.452H20.1056H19.3556V19.202V33.25H13.6852V19.202V18.452H12.9352H8.55884V12.9754H12.9352Z" stroke="white" stroke-width="1.5"/>
</svg>
