<svg width="94" height="38" viewBox="0 0 94 38" fill="none" xmlns="http://www.w3.org/2000/svg">
<path d="M37.2924 0H32.6661L30.7558 0.961659L28.8108 0H19.74L17.5741 1.09161H11.5139L9.33069 0H0V17.5524L1.09161 19.7183V25.7785L0 27.9618V37.2924H18.6484L20.5717 36.3308L22.4994 37.2924H37.2924V22.4994L36.3308 20.5717L37.2924 18.6484V0ZM9.83318 30.7558L6.55401 27.4766V20.9053L16.3872 30.7558H9.83318ZM29.6468 30.7558H25.276L22.443 27.4246L21.8582 25.0378L19.61 24.0805L18.6484 22.9585L6.55401 8.74157L8.71991 6.57567L18.6484 14.0004L30.7558 23.0885L29.6468 30.7558ZM30.7558 16.3872L20.9226 6.55401H27.4593L30.7558 9.83318V16.3872Z" fill="white"/>
<path d="M41.451 7.7929L44.6565 6.42838L47.8664 7.7929L44.6565 0.186264L41.451 7.7929Z" fill="white"/>
<path d="M58.3796 5.5447V18.6267H65.3105V20.9486H57.2101C56.9039 20.943 56.6118 20.8189 56.3953 20.6024C56.1788 20.3859 56.0547 20.0938 56.0491 19.7876V5.5447H58.3796Z" fill="white"/>
<path d="M66.6404 5.5447H75.9061V7.86221H66.6404V5.5447ZM68.9622 8.51198V18.6267H75.8931V20.9486H67.8013C67.4965 20.9409 67.2063 20.8168 66.9903 20.6016C66.7744 20.3865 66.6491 20.0967 66.6404 19.792V8.51198H68.9622ZM69.612 12.6922H75.9061V15.014H69.612V12.6922Z" fill="white"/>
<path d="M80.0213 5.58801L84.3228 12.7441C84.4056 12.9166 84.4415 13.1079 84.4267 13.2986C84.4391 13.4809 84.4079 13.6635 84.3358 13.8314L80.0256 20.9572H77.2533L81.9186 13.2943L77.2533 5.58801H80.0213ZM89.5772 5.58801L86.8439 5.56635L83.6643 10.8035L85.0722 13.043L89.5772 5.58801ZM83.7726 15.5208L87.0908 20.9789H89.8588L85.0722 13.2943L83.7726 15.5208Z" fill="white"/>
<path d="M57.4873 29.5082C57.6363 29.667 57.817 29.7927 58.0178 29.877C58.2186 29.9614 58.4348 30.0025 58.6525 29.9977C58.9718 29.9956 59.2834 29.8989 59.5477 29.7198C59.8121 29.5408 60.0175 29.2874 60.1381 28.9917C60.2586 28.696 60.2887 28.3713 60.2248 28.0584C60.1609 27.7456 60.0057 27.4587 59.7788 27.234C59.6323 27.0811 59.456 26.9599 59.2608 26.878C59.0656 26.796 58.8556 26.755 58.6439 26.7575C58.2127 26.7575 57.799 26.9285 57.4937 27.233C57.1884 27.5375 57.0163 27.9507 57.0151 28.3819V33.788H55.7632V28.3819C55.7521 27.7566 55.9438 27.1444 56.3098 26.6372C56.6757 26.13 57.1962 25.755 57.7932 25.5684C58.3902 25.3818 59.0315 25.3937 59.6212 25.6022C60.2109 25.8107 60.7171 26.2047 61.0641 26.7252C61.411 27.2456 61.58 27.8644 61.5457 28.4889C61.5114 29.1135 61.2757 29.71 60.8738 30.1893C60.472 30.6686 59.9257 31.0048 59.3167 31.1476C58.7077 31.2903 58.0689 31.2318 57.4959 30.981L57.4873 29.5082Z" fill="white"/>
<path d="M64.0326 25.5186V28.3906C64.0296 28.6024 64.0704 28.8125 64.1524 29.0078C64.2344 29.2031 64.3558 29.3794 64.5091 29.5255C64.6579 29.6786 64.8366 29.7995 65.0341 29.8807C65.2315 29.962 65.4436 30.0018 65.6571 29.9977C65.8727 30.0015 66.0867 29.9598 66.2852 29.8755C66.4838 29.7912 66.6623 29.666 66.8093 29.5082V30.9983C66.2784 31.2359 65.6881 31.3071 65.1159 31.2027C64.5438 31.0984 64.0166 30.8232 63.6038 30.4135C63.3304 30.1538 63.1147 29.8395 62.9707 29.491C62.8267 29.1424 62.7575 28.7676 62.7677 28.3906L62.8024 25.5186H64.0326ZM68.5247 31.2756H67.2728V25.5186H68.5247V31.2756Z" fill="white"/>
<path d="M72.1417 27.26C72.1417 27.1451 72.0961 27.0349 72.0149 26.9537C71.9336 26.8725 71.8234 26.8268 71.7086 26.8268C71.5949 26.8273 71.486 26.8724 71.4053 26.9524C71.3273 27.0332 71.2836 27.1412 71.2836 27.2535C71.2836 27.3658 71.3273 27.4738 71.4053 27.5546C71.486 27.6346 71.5949 27.6797 71.7086 27.6802C71.9518 27.6682 72.1949 27.7058 72.4231 27.7907C72.6514 27.8755 72.86 28.0058 73.0364 28.1737C73.2127 28.3416 73.3531 28.5436 73.4491 28.7674C73.545 28.9912 73.5945 29.2322 73.5945 29.4757C73.5945 29.7192 73.545 29.9602 73.4491 30.184C73.3531 30.4078 73.2127 30.6098 73.0364 30.7777C72.86 30.9456 72.6514 31.0759 72.4231 31.1608C72.1949 31.2456 71.9518 31.2832 71.7086 31.2712C71.4738 31.2755 71.2406 31.232 71.0232 31.1434C70.8057 31.0548 70.6086 30.9229 70.4437 30.7558C70.2727 30.5931 70.1375 30.3966 70.0465 30.1789C69.9555 29.9611 69.9108 29.7268 69.9152 29.4909H71.1628C71.1623 29.5617 71.1768 29.6318 71.2051 29.6967C71.2335 29.7617 71.2751 29.8199 71.3274 29.8677C71.4304 29.9701 71.5698 30.0276 71.7151 30.0276C71.8603 30.0276 71.9997 29.9701 72.1028 29.8677C72.1552 29.8183 72.197 29.7585 72.2253 29.6921C72.2536 29.6258 72.2679 29.5543 72.2674 29.4822C72.2679 29.4107 72.2535 29.3399 72.2251 29.2743C72.1968 29.2087 72.1551 29.1497 72.1028 29.101C72.0527 29.0495 71.9928 29.0087 71.9265 28.9812C71.8602 28.9536 71.789 28.9399 71.7172 28.9407C71.4972 28.9435 71.279 28.9015 71.0757 28.8174C70.8724 28.7332 70.6883 28.6087 70.5346 28.4512C70.3739 28.2987 70.2466 28.1145 70.1608 27.9101C70.0751 27.7058 70.0327 27.4859 70.0365 27.2643C70.035 26.9314 70.1327 26.6056 70.3171 26.3285C70.5014 26.0513 70.7642 25.8353 71.0718 25.7079C71.3794 25.5806 71.7179 25.5478 72.0442 25.6136C72.3706 25.6794 72.6699 25.8409 72.9041 26.0774C73.0613 26.2322 73.1856 26.4171 73.2697 26.621C73.3538 26.825 73.396 27.0437 73.3936 27.2643L72.1417 27.26Z" fill="white"/>
<path d="M74.5329 22.9585H75.7805V31.2756H74.5329V22.9585ZM79.025 31.2756V28.4036C79.0205 28.0828 78.9211 27.7705 78.7393 27.5061C78.5575 27.2417 78.3015 27.0371 78.0036 26.918C77.7057 26.7989 77.3792 26.7707 77.0652 26.837C76.7513 26.9032 76.464 27.061 76.2396 27.2903V25.7915C76.6031 25.6275 76.9975 25.5433 77.3962 25.5446C77.7727 25.5383 78.1464 25.6093 78.4943 25.7531C78.8422 25.8969 79.157 26.1105 79.4192 26.3806C79.6901 26.6418 79.9036 26.9566 80.0461 27.3049C80.1885 27.6532 80.2568 28.0274 80.2465 28.4036V31.2756H79.025Z" fill="white"/>
<path d="M85.4057 27.7712C85.5617 27.7712 85.644 27.7062 85.644 27.5849C85.6436 27.5487 85.6347 27.513 85.618 27.4809C85.477 27.2601 85.2801 27.0805 85.0473 26.9603C84.8145 26.8401 84.5541 26.7836 84.2924 26.7965C84.0767 26.7951 83.8631 26.8383 83.6648 26.9233C83.4666 27.0082 83.288 27.1332 83.1402 27.2903C82.9873 27.4368 82.8661 27.6131 82.7841 27.8083C82.7022 28.0036 82.6612 28.2135 82.6637 28.4253C82.6652 28.7468 82.7618 29.0607 82.9414 29.3275C83.121 29.5942 83.3756 29.8018 83.673 29.9241C83.9704 30.0464 84.2973 30.0779 84.6126 30.0147C84.9279 29.9515 85.2174 29.7963 85.4447 29.5689V31.046C85.0077 31.2421 84.5285 31.3256 84.0509 31.2888C83.5733 31.2521 83.1125 31.0963 82.7106 30.8357C82.3087 30.5751 81.9784 30.218 81.7501 29.7969C81.5217 29.3758 81.4024 28.9043 81.4031 28.4253C81.3972 28.0481 81.4692 27.6738 81.6145 27.3257C81.7599 26.9776 81.9755 26.6633 82.2478 26.4023C82.6487 26 83.1599 25.7257 83.7168 25.6142C84.2737 25.5028 84.8511 25.5592 85.3759 25.7764C85.9007 25.9935 86.3492 26.3616 86.6645 26.834C86.9798 27.3063 87.1478 27.8617 87.1471 28.4296C87.1559 28.5093 87.1468 28.59 87.1204 28.6657C87.094 28.7414 87.0509 28.8103 86.9944 28.8672C86.9379 28.9241 86.8694 28.9676 86.7939 28.9946C86.7183 29.0216 86.6377 29.0313 86.558 29.023H83.1272V27.7712H85.4057Z" fill="white"/>
<path d="M89.5209 31.2756H88.269V25.5186H89.5209V31.2756ZM91.1367 26.7965C90.9208 26.7938 90.7067 26.8364 90.5083 26.9214C90.3098 27.0065 90.1314 27.1321 89.9844 27.2903V25.8002C90.3509 25.6361 90.7481 25.5519 91.1497 25.5533C91.905 25.5578 92.628 25.8602 93.1617 26.3947C93.6953 26.9292 93.9966 27.6526 94 28.4079H92.7524C92.7513 28.1952 92.7083 27.9847 92.6258 27.7886C92.5434 27.5925 92.4231 27.4145 92.2718 27.2649C92.1206 27.1152 91.9413 26.9969 91.7443 26.9165C91.5473 26.8361 91.3364 26.7954 91.1237 26.7965H91.1367Z" fill="white"/>
<line x1="44.5" y1="37" x2="44.5" y2="5" stroke="white"/>
</svg>
