<svg width="36" height="28" viewBox="0 0 36 28" fill="none" xmlns="http://www.w3.org/2000/svg">
<path d="M34.4568 27.3428H20.9568C20.335 27.3428 19.8318 26.8396 19.8318 26.2177V12.7178C19.8318 12.0959 20.3349 11.5927 20.9568 11.5927H33.2181C32.6501 6.54412 28.4049 2.59275 23.2068 2.59275H22.0818V0.342754H23.2068C30.0304 0.342754 35.5818 5.89419 35.5818 12.7178V26.2177C35.5818 26.8396 35.0787 27.3428 34.4568 27.3428ZM22.0819 25.0928H33.3318V13.8428H22.0819V25.0928Z" fill="#2A3D84"/>
<path d="M14.625 27.3428H1.12504C0.503141 27.3428 0 26.8396 0 26.2177V12.7178C0 12.0959 0.503141 11.5927 1.12504 11.5927H13.3863C12.8183 6.54412 8.5731 2.59275 3.37503 2.59275H2.25V0.342756H3.37503C10.1986 0.342756 15.75 5.89419 15.75 12.7178V26.2177C15.75 26.8396 15.2468 27.3428 14.625 27.3428ZM2.25 25.0928H13.5V13.8428H2.25V25.0928Z" fill="#2A3D84"/>
</svg>
