<svg width="40" height="51" viewBox="0 0 40 51" fill="none" xmlns="http://www.w3.org/2000/svg">
<path d="M28.3608 17.5075C27.9339 17.5075 27.5874 17.1627 27.5874 16.7379V9.08849C27.5874 4.92672 24.1842 1.53912 19.9999 1.53912C15.8156 1.53912 12.4125 4.92672 12.4125 9.08849V16.7379C12.4125 17.1627 12.066 17.5075 11.639 17.5075C11.2121 17.5075 10.8656 17.1627 10.8656 16.7379V9.08849C10.8656 4.07712 14.9633 0 19.9999 0C25.0366 0 29.1343 4.07712 29.1343 9.08849V16.7379C29.1343 17.1627 28.7893 17.5075 28.3608 17.5075Z" fill="#0D1C53"/>
<path d="M38.2563 51H1.7436C1.53186 51 1.3294 50.9135 1.18412 50.7604C1.03884 50.6074 0.961568 50.4019 0.970841 50.1901L2.70954 13.676C2.72963 13.2633 3.0681 12.9403 3.4823 12.9403H36.5176C36.9302 12.9403 37.2702 13.2633 37.2903 13.676L39.029 50.1901C39.0383 50.4019 38.9626 50.6074 38.8158 50.7604C38.6689 50.9135 38.4665 51 38.2563 51ZM2.55344 49.4544H37.4449L35.7804 14.4859H4.21796L2.55344 49.4544Z" fill="#0D1C53"/>
</svg>
