<svg width="18" height="18" viewBox="0 0 18 18" fill="none" xmlns="http://www.w3.org/2000/svg">
<g filter="url(#filter0_d)">
<path d="M4.67489 1.80692L4.45279 1.9155L4.23168 1.80494L3.6218 1.5H2.53252V7.8901L2.83746 8.49997L2.94926 8.72358L2.83746 8.94718L2.53252 9.55706V14.4675H7.4592L8.06908 14.1625L8.29268 14.0507L8.51629 14.1625L9.12616 14.4675H15.5V11.5896L15.1463 10.8821L15.0935 10.7766V10.6585V8.39837V8.28034L15.1463 8.17477L15.5 7.46733V1.5H12.6058L11.8984 1.85372L11.7928 1.9065H11.6748H9.39837H9.28034L9.17477 1.85372L8.46733 1.5H5.30267L4.67489 1.80692ZM12.6625 12.8983L12.516 13.0447H12.3089H9.85366H8.64655L9.5001 12.1912L13.1912 8.5001L14.0447 7.64655V8.85366V11.3089V11.516L13.8983 11.6625L12.6625 12.8983ZM4.87805 13.0447H4.44371L4.38296 12.6146L3.97646 9.73659L3.93521 9.44455L4.17086 9.26718L8.70744 5.85255L8.70744 5.85255L8.70897 5.8514L12.4325 3.07092L12.7793 2.81201L13.0853 3.11799L13.8983 3.931L14.2244 4.25716L13.9256 4.60851L9.38898 9.94184L9.38906 9.94191L9.38263 9.94917L9.00864 10.3719L8.93347 10.4569L8.82897 10.5011L8.2169 10.7601L8.06383 11.4077L8.03635 11.5239L7.9593 11.6152L6.90239 12.8672L6.75258 13.0447H6.52032H4.87805ZM4.80884 7.49989L3.95528 8.35345V7.14634V4.69106V4.48395L4.10173 4.3375L5.3375 3.10173L5.48395 2.95528H5.69106H8.14634H9.35345L8.49989 3.80884L4.80884 7.49989Z" fill="#FCB40C"/>
<path d="M4.67489 1.80692L4.45279 1.9155L4.23168 1.80494L3.6218 1.5H2.53252V7.8901L2.83746 8.49997L2.94926 8.72358L2.83746 8.94718L2.53252 9.55706V14.4675H7.4592L8.06908 14.1625L8.29268 14.0507L8.51629 14.1625L9.12616 14.4675H15.5V11.5896L15.1463 10.8821L15.0935 10.7766V10.6585V8.39837V8.28034L15.1463 8.17477L15.5 7.46733V1.5H12.6058L11.8984 1.85372L11.7928 1.9065H11.6748H9.39837H9.28034L9.17477 1.85372L8.46733 1.5H5.30267L4.67489 1.80692ZM12.6625 12.8983L12.516 13.0447H12.3089H9.85366H8.64655L9.5001 12.1912L13.1912 8.5001L14.0447 7.64655V8.85366V11.3089V11.516L13.8983 11.6625L12.6625 12.8983ZM4.87805 13.0447H4.44371L4.38296 12.6146L3.97646 9.73659L3.93521 9.44455L4.17086 9.26718L8.70744 5.85255L8.70744 5.85255L8.70897 5.8514L12.4325 3.07092L12.7793 2.81201L13.0853 3.11799L13.8983 3.931L14.2244 4.25716L13.9256 4.60851L9.38898 9.94184L9.38906 9.94191L9.38263 9.94917L9.00864 10.3719L8.93347 10.4569L8.82897 10.5011L8.2169 10.7601L8.06383 11.4077L8.03635 11.5239L7.9593 11.6152L6.90239 12.8672L6.75258 13.0447H6.52032H4.87805ZM4.80884 7.49989L3.95528 8.35345V7.14634V4.69106V4.48395L4.10173 4.3375L5.3375 3.10173L5.48395 2.95528H5.69106H8.14634H9.35345L8.49989 3.80884L4.80884 7.49989Z" stroke="#0D1C53"/>
<path d="M4.67489 1.80692L4.45279 1.9155L4.23168 1.80494L3.6218 1.5H2.53252V7.8901L2.83746 8.49997L2.94926 8.72358L2.83746 8.94718L2.53252 9.55706V14.4675H7.4592L8.06908 14.1625L8.29268 14.0507L8.51629 14.1625L9.12616 14.4675H15.5V11.5896L15.1463 10.8821L15.0935 10.7766V10.6585V8.39837V8.28034L15.1463 8.17477L15.5 7.46733V1.5H12.6058L11.8984 1.85372L11.7928 1.9065H11.6748H9.39837H9.28034L9.17477 1.85372L8.46733 1.5H5.30267L4.67489 1.80692ZM12.6625 12.8983L12.516 13.0447H12.3089H9.85366H8.64655L9.5001 12.1912L13.1912 8.5001L14.0447 7.64655V8.85366V11.3089V11.516L13.8983 11.6625L12.6625 12.8983ZM4.87805 13.0447H4.44371L4.38296 12.6146L3.97646 9.73659L3.93521 9.44455L4.17086 9.26718L8.70744 5.85255L8.70744 5.85255L8.70897 5.8514L12.4325 3.07092L12.7793 2.81201L13.0853 3.11799L13.8983 3.931L14.2244 4.25716L13.9256 4.60851L9.38898 9.94184L9.38906 9.94191L9.38263 9.94917L9.00864 10.3719L8.93347 10.4569L8.82897 10.5011L8.2169 10.7601L8.06383 11.4077L8.03635 11.5239L7.9593 11.6152L6.90239 12.8672L6.75258 13.0447H6.52032H4.87805ZM4.80884 7.49989L3.95528 8.35345V7.14634V4.69106V4.48395L4.10173 4.3375L5.3375 3.10173L5.48395 2.95528H5.69106H8.14634H9.35345L8.49989 3.80884L4.80884 7.49989Z" stroke="url(#paint0_linear)"/>
</g>
<defs>
<filter id="filter0_d" x="0" y="0" width="18" height="18" filterUnits="userSpaceOnUse" color-interpolation-filters="sRGB">
<feFlood flood-opacity="0" result="BackgroundImageFix"/>
<feColorMatrix in="SourceAlpha" type="matrix" values="0 0 0 0 0 0 0 0 0 0 0 0 0 0 0 0 0 0 127 0"/>
<feOffset dy="1"/>
<feGaussianBlur stdDeviation="1"/>
<feColorMatrix type="matrix" values="0 0 0 0 0.988235 0 0 0 0 0.705882 0 0 0 0 0.0470588 0 0 0 0.57 0"/>
<feBlend mode="normal" in2="BackgroundImageFix" result="effect1_dropShadow"/>
<feBlend mode="normal" in="SourceGraphic" in2="effect1_dropShadow" result="shape"/>
</filter>
<linearGradient id="paint0_linear" x1="9" y1="1" x2="9" y2="14.9675" gradientUnits="userSpaceOnUse">
<stop stop-color="#0D1C53"/>
<stop offset="0.598675" stop-color="#2A3D84"/>
</linearGradient>
</defs>
</svg>
