<svg width="34" height="34" viewBox="0 0 34 34" fill="none" xmlns="http://www.w3.org/2000/svg">
<g clip-path="url(#clip0)">
<path d="M33.475 3.37738C33.0597 2.86948 32.4377 2.58984 31.7233 2.58984C31.335 2.58984 30.9236 2.67155 30.5007 2.83316L1.72039 13.8195C0.193046 14.4024 -0.0126572 15.2771 0.000572161 15.7466C0.0138015 16.2161 0.268791 17.0778 1.82674 17.5735C1.83608 17.5764 1.84542 17.5792 1.85476 17.5818L7.82458 19.2902L11.0531 28.5223C11.4933 29.7809 12.4813 30.5627 13.632 30.5627C14.3575 30.5627 15.0712 30.2587 15.6958 29.6839L19.3883 26.2839L24.7442 30.5964C24.7447 30.5969 24.7455 30.5972 24.746 30.5977L24.7968 30.6387C24.8015 30.6423 24.8064 30.6462 24.8111 30.6499C25.4064 31.1116 26.0562 31.3554 26.6909 31.3557H26.6912C27.9314 31.3557 28.9189 30.4377 29.2066 29.0172L33.9222 5.73247C34.1116 4.79785 33.9528 3.96155 33.475 3.37738V3.37738ZM9.82169 18.9657L21.3393 13.0818L14.1677 20.7021C14.0502 20.8269 13.9669 20.9797 13.9259 21.146L12.5431 26.7475L9.82169 18.9657ZM14.3461 28.2182C14.2984 28.2621 14.2504 28.3013 14.2024 28.3373L15.4854 23.141L17.8192 25.0204L14.3461 28.2182ZM31.9697 5.33688L27.2541 28.6219C27.2087 28.8447 27.0637 29.3632 26.6909 29.3632C26.5068 29.3632 26.2754 29.2628 26.0386 29.0805L19.9697 24.1939C19.9689 24.1931 19.9678 24.1924 19.9668 24.1918L16.3557 21.284L26.7267 10.2639C27.0588 9.91113 27.0889 9.3708 26.7981 8.98326C26.507 8.59572 25.9797 8.4738 25.5483 8.69429L8.49071 17.4086L2.4397 15.6773L31.2112 4.69435C31.4543 4.60149 31.6239 4.58203 31.7233 4.58203C31.7843 4.58203 31.8927 4.58929 31.9329 4.63884C31.9858 4.70343 32.0533 4.92366 31.9697 5.33688V5.33688Z" fill="white"/>
</g>
<defs>
<clipPath id="clip0">
<rect width="34" height="34" fill="white"/>
</clipPath>
</defs>
</svg>
