<svg width="34" height="34" viewBox="0 0 34 34" fill="none" xmlns="http://www.w3.org/2000/svg">
<g clip-path="url(#clip0)">
<path d="M32.4894 22.2913C31.7498 21.405 30.9143 20.6136 30.1062 19.8483C29.8222 19.5793 29.5284 19.3011 29.2455 19.0249C29.2455 19.0248 29.2454 19.0248 29.2453 19.0247C28.8648 18.6536 28.6786 18.3901 28.6591 18.1955C28.64 18.0043 28.7707 17.7205 29.0713 17.3011C29.5208 16.6703 29.9999 16.0383 30.4634 15.4273C30.8754 14.8841 31.3014 14.3223 31.7096 13.7574L31.8013 13.6306C32.5978 12.5281 33.4214 11.3881 33.8627 9.99886C33.9888 9.60055 34.1196 9.01113 33.8039 8.49369C33.4881 7.97612 32.9026 7.82272 32.49 7.75246C32.2884 7.71793 32.0972 7.71507 31.9192 7.71507L26.7524 7.71049C25.8591 7.69562 25.2394 8.11902 24.9016 8.96929C24.6314 9.64836 24.3121 10.4353 23.9423 11.1819C23.2348 12.6231 22.3357 14.2831 21.0325 15.6661L20.9746 15.7277C20.8859 15.8224 20.7409 15.9773 20.6665 16.0128C20.5253 15.9241 20.3624 15.4167 20.3699 15.1509C20.3701 15.1443 20.3701 15.1378 20.3701 15.1313L20.3655 9.16114C20.3655 9.13079 20.3634 9.10044 20.3594 9.07036C20.2435 8.21863 20.0176 7.36478 18.6695 7.09875C18.6263 7.09019 18.5823 7.08594 18.5384 7.08594H13.1638C12.1526 7.08594 11.6178 7.54899 11.189 8.05102C11.0649 8.19738 10.7351 8.58599 10.9031 9.06107C11.0731 9.54178 11.5796 9.63774 11.7459 9.66922C12.3316 9.78038 12.6345 10.1114 12.7283 10.7443C12.9136 11.9739 12.9363 13.2894 12.7999 14.882C12.7618 15.3096 12.691 15.6346 12.5768 15.9049C12.5452 15.9797 12.5174 16.026 12.498 16.0533C12.4671 16.0409 12.4189 16.0169 12.3523 15.9713C11.9407 15.6897 11.6305 15.2519 11.3305 14.8286C10.1324 13.137 9.12465 11.2688 8.24922 9.11618C7.8887 8.23411 7.21095 7.74144 6.34209 7.72869C4.68671 7.70113 3.15571 7.70179 1.66316 7.73081C0.959183 7.74303 0.465517 7.96463 0.195642 8.38956C-0.0745663 8.8153 -0.0646717 9.3581 0.225126 10.0032C2.29674 14.6098 4.17777 17.9609 6.32403 20.8691C7.83524 22.9166 9.35648 24.3378 11.1114 25.3419C12.9552 26.3967 15.0347 26.9137 17.4471 26.9137C17.7214 26.9137 18.0005 26.907 18.2834 26.8935C19.7717 26.8257 20.3773 26.2337 20.4434 24.7841C20.4804 24.0179 20.5657 23.3973 20.8615 22.8581C20.9443 22.7071 21.0376 22.6059 21.1112 22.5874C21.1894 22.5679 21.3282 22.6158 21.4824 22.716C21.7645 22.8991 22.0073 23.1475 22.207 23.3655C22.4094 23.5871 22.6139 23.816 22.8119 24.0373C23.2331 24.5086 23.6687 24.996 24.125 25.4608C25.1572 26.513 26.347 26.9955 27.663 26.8944L32.3915 26.8966C32.3916 26.8966 32.3917 26.8966 32.3917 26.8966C32.4068 26.8966 32.4218 26.8961 32.4368 26.8951C32.9822 26.8588 33.4537 26.5569 33.7306 26.0665C34.0641 25.476 34.059 24.7281 33.7169 24.065C33.3599 23.3757 32.8967 22.7823 32.4894 22.2913ZM32.5512 25.4005C32.486 25.516 32.4056 25.5371 32.3641 25.5421L27.6366 25.5399C27.6364 25.5399 27.6363 25.5399 27.6361 25.5399C27.6175 25.5399 27.5988 25.5406 27.5803 25.5422C26.6489 25.6198 25.8573 25.2924 25.0918 24.5121C24.6575 24.0697 24.2327 23.5945 23.8218 23.1348C23.6216 22.9108 23.4146 22.6791 23.2066 22.4515C22.9487 22.1698 22.6299 21.846 22.2202 21.58C21.6069 21.1819 21.0986 21.1939 20.7803 21.2742C20.4653 21.3535 20.0176 21.58 19.674 22.2071C19.2288 23.0185 19.1306 23.8939 19.0906 24.7208C19.0675 25.2266 18.982 25.3602 18.9462 25.3941C18.8994 25.4386 18.743 25.5169 18.2209 25.5407C15.7124 25.6586 13.6072 25.2094 11.7841 24.1664C10.1982 23.259 8.80949 21.9556 7.41396 20.065C5.32713 17.2374 3.491 13.9631 1.46062 9.44808C1.38704 9.28452 1.36433 9.18246 1.35775 9.1278C1.40955 9.1108 1.51075 9.08843 1.68819 9.08517C3.1656 9.05655 4.6806 9.05575 6.32104 9.08311C6.54563 9.08643 6.80136 9.15384 6.995 9.62765C7.90968 11.8768 8.96627 13.8341 10.2253 15.6117C10.5596 16.0835 10.9757 16.6708 11.5873 17.0892C12.1474 17.4728 12.602 17.4545 12.8847 17.3716C13.1676 17.2886 13.5602 17.0582 13.8246 16.4321C13.9952 16.0286 14.0984 15.5741 14.1494 15C14.2953 13.2965 14.2694 11.8802 14.0681 10.5443C13.9262 9.58714 13.432 8.89571 12.6535 8.54263C12.7918 8.47065 12.9475 8.44063 13.1639 8.44063H18.4682C18.7667 8.50757 18.8258 8.58619 18.846 8.61309C18.932 8.72737 18.9811 8.99771 19.0111 9.20895L19.0156 15.124C19.0037 15.6911 19.2793 16.9487 20.2176 17.2935C20.2253 17.2964 20.2331 17.2991 20.2408 17.3016C21.0951 17.5808 21.6601 16.9777 21.9635 16.6537L22.0175 16.5962C23.445 15.0811 24.4062 13.3109 25.1572 11.7812C25.5486 10.9913 25.8801 10.1742 26.1604 9.46993C26.3007 9.11671 26.4283 9.05854 26.7329 9.06498C26.737 9.06512 26.7412 9.06512 26.7454 9.06512L31.9188 9.0697C32.0391 9.0697 32.1647 9.07109 32.2621 9.08776C32.5086 9.12973 32.6102 9.18086 32.6436 9.20205C32.6471 9.24129 32.6463 9.35418 32.5718 9.58979C32.1965 10.7711 31.4713 11.7748 30.7036 12.8374L30.6119 12.9644C30.213 13.5164 29.7917 14.0718 29.3845 14.6089C28.915 15.2279 28.4297 15.8679 27.9695 16.5137C26.9858 17.8863 27.0723 18.7971 28.2999 19.9946C28.59 20.2778 28.8874 20.5595 29.1751 20.8319C29.9906 21.6044 30.761 22.334 31.4485 23.1578C31.8084 23.5917 32.2164 24.1128 32.5138 24.6871C32.6689 24.9877 32.6309 25.2593 32.5512 25.4005Z" fill="white"/>
</g>
<defs>
<clipPath id="clip0">
<rect width="34" height="34" fill="white"/>
</clipPath>
</defs>
</svg>
