<?xml version="1.0" standalone="no"?>
<!DOCTYPE svg PUBLIC "-//W3C//DTD SVG 1.1//EN" "http://www.w3.org/Graphics/SVG/1.1/DTD/svg11.dtd">
<svg xmlns="http://www.w3.org/2000/svg">
<defs >
<font id="MPLUS1p" horiz-adv-x="904" ><font-face
    font-family="Mplus 1p Light"
    units-per-em="1000"
    panose-1="2 11 4 3 2 2 3 2 2 7"
    ascent="1075"
    descent="-320"
    alphabetic="0" />
<glyph unicode=" " glyph-name="space" horiz-adv-x="283" />
<glyph unicode="!" glyph-name="exclam" horiz-adv-x="333" d="M138 730H195L190 197H143L138 730ZM140 0V117H193V0H140Z" />
<glyph unicode="&quot;" glyph-name="quotedbl" horiz-adv-x="366" d="M73 770H123L118 537H78L73 770ZM243 770H293L288 537H248L243 770Z" />
<glyph unicode="#" glyph-name="numbersign" horiz-adv-x="671" d="M53 203V245H180L226 505H105V547H233L266 730H312L280 547H453L486 730H532L500 547H618V505H493L447 245H566V203H439L403 0H356L392 203H219L183 0H136L172 203H53ZM446 505H273L227 245H400L446
505Z" />
<glyph unicode="$" glyph-name="dollar" horiz-adv-x="596" d="M312 672V394Q428 369 478 322T528 195Q528 114 472 67T312 15V-85H270V15Q161 19 58 70L72 111Q168 62 270 58V357Q162 381 114 427T65 547Q65 623 118 667T270 715V815H312V715Q409 712 511 675L498
633Q405 669 312 672ZM312 58Q393 62 436 97T480 195T441 293T312 349V58ZM270 672Q192 669 152 637T112 547Q112 490 149 456T270 402V672Z" />
<glyph unicode="%" glyph-name="percent" horiz-adv-x="829" d="M597 730H650L232 0H180L597 730ZM679 327T625 327T541 289T511 178T541 68T625 30T708 68T738 178T709 288ZM259 700T205 700T121 662T91 552T121 442T205 403T288 441T318 552T289 662ZM625 -10Q548
-10 506 39T463 178T505 317T625 367Q701 367 743 317T786 178T744 40T625 -10ZM205 363Q128 363 86 413T43 552T85 690T205 740Q281 740 323 691T366 552T324 413T205 363Z" />
<glyph unicode="&amp;" glyph-name="ampersand" horiz-adv-x="694" d="M277 375Q183 314 143 267T103 172Q103 105 149 69T281 32Q352 32 406 53T510 124L277 375ZM317 401L525 175V424H572V124L686 0H625L543 89Q428 -10 280 -10Q170 -10 112 37T53 170Q53 228
97 282T248 407L234 422Q178 483 156 524T133 607Q133 667 180 703T306 740Q388 740 433 705T478 608Q478 553 444 509T317 401ZM287 433Q375 493 403 528T431 607Q431 651 399 675T306 699Q249 699 216 674T182 607Q182 573 201 539T283 437L287 433Z" />
<glyph unicode="&apos;" glyph-name="quotesingle" horiz-adv-x="209" d="M78 770H131L126 537H83L78 770Z" />
<glyph unicode="(" glyph-name="parenleft" horiz-adv-x="361" d="M73 322Q73 594 260 770H313Q121 593 121 322Q121 52 313 -125H260Q73 51 73 322Z" />
<glyph unicode=")" glyph-name="parenright" horiz-adv-x="361" d="M288 322Q288 51 101 -125H48Q240 52 240 322Q240 593 48 770H101Q288 594 288 322Z" />
<glyph unicode="*" glyph-name="asterisk" horiz-adv-x="522" d="M469 584L293 528L403 379L369 354L261 504L153 354L120 379L229 528L53 584L66 623L241 565L240 750H282L281 565L456 623L469 584Z" />
<glyph unicode="+" glyph-name="plus" horiz-adv-x="733" d="M388 580V311H650V269H388V0H345V269H83V311H345V580H388Z" />
<glyph unicode="," glyph-name="comma" horiz-adv-x="274" d="M140 123H201L111 -110H63L140 123Z" />
<glyph unicode="-" glyph-name="hyphen" horiz-adv-x="449" d="M83 269V311H366V269H83Z" />
<glyph unicode="." glyph-name="period" horiz-adv-x="253" d="M98 0V130H155V0H98Z" />
<glyph unicode="/" glyph-name="slash" horiz-adv-x="484" d="M431 730L88 -40H38L382 730H431Z" />
<glyph unicode="0" glyph-name="zero" horiz-adv-x="610" d="M305 740Q561 740 561 365T305 -10Q48 -10 48 365T305 740ZM305 33Q408 33 459 114T511 365T460 616T305 697Q98 697 98 365T305 33Z" />
<glyph unicode="1" glyph-name="one" horiz-adv-x="610" d="M318 0V668H316L111 474L88 513L318 730H368V0H318Z" />
<glyph unicode="2" glyph-name="two" horiz-adv-x="610" d="M294 696Q246 696 190 677T89 624L71 663Q117 698 179 719T299 740Q401 740 458 687T515 537Q515 440 437 333T151 45V43H521V0H81V43Q303 233 383 339T464 533Q464 611 420 653T294 696Z" />
<glyph unicode="3" glyph-name="three" horiz-adv-x="610" d="M84 730H511V687L247 425V423H288Q402 423 461 372T521 223Q521 109 456 50T266 -10Q162 -10 81 43L99 84Q178 33 266 33Q471 33 471 223Q471 304 420 343T258 383H181V425L445 685V687H84V730Z" />
<glyph unicode="4" glyph-name="four" horiz-adv-x="610" d="M380 223V654H378L68 225V223H380ZM429 223H562V180H429V0H380V180H15V223L380 730H429V223Z" />
<glyph unicode="5" glyph-name="five" horiz-adv-x="610" d="M498 687H173L154 413H156Q219 453 298 453Q408 453 468 396T528 235Q528 116 463 53T272 -10Q171 -10 85 42L101 83Q184 33 272 33Q373 33 425 84T478 235Q478 321 431 366T292 411Q210 411 149 363H103L127
730H498V687Z" />
<glyph unicode="6" glyph-name="six" horiz-adv-x="610" d="M307 444Q224 444 165 387T106 250Q106 148 160 91T307 33Q401 33 454 90T508 250Q508 338 453 391T307 444ZM307 -10Q191 -10 123 62T55 262Q55 466 150 593T413 740L421 697Q297 681 219 601T114 387L116
386Q186 485 315 485Q425 485 491 421T558 250Q558 131 490 61T307 -10Z" />
<glyph unicode="7" glyph-name="seven" horiz-adv-x="610" d="M76 730H536V687Q360 397 237 0H184Q306 386 486 685V687H76V730Z" />
<glyph unicode="8" glyph-name="eight" horiz-adv-x="610" d="M199 740T305 740T472 694T534 570Q534 508 494 462T378 393V391Q561 343 561 193Q561 99 493 45T305 -10T117 44T48 193Q48 264 94 314T231 388V390Q157 413 117 460T76 570Q76 647 137 693ZM305
410Q390 425 438 467T486 567Q486 627 438 662T305 698T173 663T124 567Q124 508 172 466T305 410ZM303 368Q96 332 96 195Q96 119 152 76T305 32Q401 32 456 76T512 195Q512 333 303 368Z" />
<glyph unicode="9" glyph-name="nine" horiz-adv-x="610" d="M179 33Q440 68 495 345H493Q424 245 294 245Q184 245 118 310T51 485Q51 601 119 670T303 740Q420 740 487 669T554 473Q554 263 458 137T188 -10L179 33ZM397 697T303 697T155 641T101 485Q101 394
156 340T303 286Q386 286 445 344T504 485Q504 584 451 640Z" />
<glyph unicode=":" glyph-name="colon" horiz-adv-x="333" d="M138 383V513H195V383H138ZM138 0V130H195V0H138Z" />
<glyph unicode=";" glyph-name="semicolon" horiz-adv-x="354" d="M83 -110L160 123H221L131 -110H83ZM150 383V513H206V383H150Z" />
<glyph unicode="&lt;" glyph-name="less" horiz-adv-x="659" d="M561 510L102 291V289L561 70V23L68 263V317L561 557V510Z" />
<glyph unicode="=" glyph-name="equal" horiz-adv-x="753" d="M93 382V423H660V382H93ZM93 157V198H660V157H93Z" />
<glyph unicode="&gt;" glyph-name="greater" horiz-adv-x="659" d="M98 510V557L591 317V263L98 23V70L558 289V291L98 510Z" />
<glyph unicode="?" glyph-name="question" horiz-adv-x="608" d="M488 580Q488 635 438 665T293 696Q190 696 79 661L68 705Q177 740 298 740Q413 740 476 698T540 583Q540 547 530 518T497 466T458 429T409 395Q375 373 358 360T318 322T285 267T275 198H225Q225
242 237 277T274 340T318 382T371 420Q401 440 416 451T451 483T479 526T488 580ZM223 0V117H277V0H223Z" />
<glyph unicode="@" glyph-name="at" horiz-adv-x="823" d="M698 93Q740 168 740 260Q740 407 649 497T411 588Q266 588 175 497T83 260T174 24T411 -68Q523 -68 604 -11L628 -44Q535 -108 411 -108Q250 -108 147 -6T43 260Q43 422 146 525T411 628Q576 628 678
527T780 260Q780 142 722 53H529V111H527Q500 74 468 59T386 43Q309 43 264 100T218 260T263 419T386 477Q435 477 467 462T527 409H529V467H578V93H698ZM267 260Q267 177 301 132T397 86T492 127T527 245V275Q527 351 493 392T397 434Q337 434 302 388T267 260Z"
/>
<glyph unicode="A" glyph-name="A" horiz-adv-x="683" d="M38 0L311 730H371L645 0H591L507 231H174L90 0H38ZM190 273H492L342 686H340L190 273Z" />
<glyph unicode="B" glyph-name="B" horiz-adv-x="588" d="M251 697Q195 697 138 686V417H231Q344 417 402 454T460 562Q460 697 251 697ZM545 210Q545 113 480 52T261 -10Q165 -10 88 6V724Q168 740 251 740Q508 740 508 567Q508 504 468 461T357 400V398Q449
383 497 335T545 210ZM495 213Q495 295 431 335T231 375H138V44Q199 33 261 33Q495 33 495 213Z" />
<glyph unicode="C" glyph-name="C" horiz-adv-x="691" d="M403 697Q261 697 178 607T94 365Q94 214 179 124T403 33Q512 33 604 93L623 54Q528 -10 400 -10Q238 -10 141 92T43 365Q43 538 139 639T400 740Q528 740 623 676L604 637Q514 697 403 697Z" />
<glyph unicode="D" glyph-name="D" horiz-adv-x="674" d="M251 697Q198 697 138 685V45Q198 33 251 33Q414 33 498 120T583 375Q583 533 499 615T251 697ZM631 375Q631 187 533 89T251 -10Q162 -10 88 6V724Q164 740 251 740Q435 740 533 646T631 375Z" />
<glyph unicode="E" glyph-name="E" horiz-adv-x="579" d="M138 687V417H481V375H138V43H501V0H88V730H501V687H138Z" />
<glyph unicode="F" glyph-name="F" horiz-adv-x="564" d="M491 687H138V407H471V365H138V0H88V730H491V687Z" />
<glyph unicode="G" glyph-name="G" horiz-adv-x="741" d="M415 697Q265 697 180 608T94 365Q94 212 181 123T418 33Q529 33 615 72V375H338V417H663V44Q554 -10 415 -10Q246 -10 145 92T43 365T142 638T411 740Q540 740 637 680L618 642Q527 697 415 697Z" />
<glyph unicode="H" glyph-name="H" horiz-adv-x="696" d="M138 730V417H558V730H608V0H558V375H138V0H88V730H138Z" />
<glyph unicode="I" glyph-name="I" horiz-adv-x="299" d="M123 0V730H176V0H123Z" />
<glyph unicode="J" glyph-name="J" horiz-adv-x="519" d="M441 730V273Q441 -10 181 -10Q95 -10 28 23L42 66Q111 33 181 33Q390 33 390 280V730H441Z" />
<glyph unicode="K" glyph-name="K" horiz-adv-x="613" d="M138 730V399H140L501 730H565L181 380L575 0H511L140 361H138V0H88V730H138Z" />
<glyph unicode="L" glyph-name="L" horiz-adv-x="581" d="M140 730V44H518V0H88V730H140Z" />
<glyph unicode="M" glyph-name="M" horiz-adv-x="849" d="M88 0V730H145L423 280H425L703 730H761V0H711V652H709L449 233H399L139 652H137V0H88Z" />
<glyph unicode="N" glyph-name="N" horiz-adv-x="703" d="M88 0V730H145L563 76H565V730H615V0H557L139 654H137V0H88Z" />
<glyph unicode="O" glyph-name="O" horiz-adv-x="793" d="M555 -10T396 -10T140 93T43 365T140 637T396 740T652 637T750 365T653 93ZM260 33T396 33T615 124T699 365T616 606T396 697T177 606T94 365T177 124Z" />
<glyph unicode="P" glyph-name="P" horiz-adv-x="586" d="M88 724Q178 740 275 740Q408 740 478 684T548 522Q548 412 478 353T275 293Q207 293 138 301V0H88V724ZM138 344Q201 335 271 335Q381 335 440 382T499 518T441 651T271 697Q204 697 138 686V344Z" />
<glyph unicode="Q" glyph-name="Q" horiz-adv-x="781" d="M532 697T396 697T177 606T94 365T177 124T396 33T615 124T699 365T616 606ZM396 -10Q237 -10 140 93T43 365T140 637T396 740T652 637T750 365Q750 237 690 145T524 17V15Q697 -20 783 -150H723Q670 -76
593 -43T396 -10Z" />
<glyph unicode="R" glyph-name="R" horiz-adv-x="606" d="M88 0V725Q169 740 261 740Q399 740 468 690T538 543Q538 390 369 355V353Q394 341 415 311T467 212L558 0H505L418 206Q401 246 390 267T365 304T334 326T296 334T238 337H138V0H88ZM138 379H238Q368
379 428 419T489 540Q489 697 258 697Q192 697 138 687V379Z" />
<glyph unicode="S" glyph-name="S" horiz-adv-x="563" d="M281 697Q204 697 162 664T119 570Q119 460 282 410Q398 375 449 322T500 185Q500 91 443 41T278 -10Q156 -10 63 57L81 97Q167 33 278 33Q362 33 406 72T450 185Q450 252 411 293T278 364Q70 426 70 570Q70
647 125 693T281 740Q393 740 486 692L472 652Q388 697 281 697Z" />
<glyph unicode="T" glyph-name="T" horiz-adv-x="653" d="M63 730H590V686H351V0H301V686H63V730Z" />
<glyph unicode="U" glyph-name="U" horiz-adv-x="673" d="M129 34T337 34T545 277V730H595V278Q595 138 528 64T336 -10T145 63T78 278V730H129V277Q129 34 337 34Z" />
<glyph unicode="V" glyph-name="V" horiz-adv-x="683" d="M92 730L341 48H343L592 730H645L371 0H311L38 730H92Z" />
<glyph unicode="W" glyph-name="W" horiz-adv-x="943" d="M99 730L264 51H266L438 730H506L678 51H680L845 730H895L710 0H644L472 679H470L299 0H232L48 730H99Z" />
<glyph unicode="X" glyph-name="X" horiz-adv-x="636" d="M111 730L318 406H320L526 730H583L349 369L588 0H529L318 332H316L106 0H48L287 369L53 730H111Z" />
<glyph unicode="Y" glyph-name="Y" horiz-adv-x="656" d="M92 730L328 362H330L565 730H623L354 318V0H302V318L33 730H92Z" />
<glyph unicode="Z" glyph-name="Z" horiz-adv-x="629" d="M78 730H551V687L137 45V43H551V0H78V43L492 685V687H78V730Z" />
<glyph unicode="[" glyph-name="bracketleft" horiz-adv-x="456" d="M165 730V-85H368V-125H118V770H368V730H165Z" />
<glyph unicode="\" glyph-name="backslash" horiz-adv-x="484" d="M53 730H103L446 -40H397L53 730Z" />
<glyph unicode="]" glyph-name="bracketright" horiz-adv-x="456" d="M291 730H88V770H338V-125H88V-85H291V730Z" />
<glyph unicode="^" glyph-name="asciicircum" horiz-adv-x="633" d="M43 280L285 730H348L590 280H537L317 697H316L96 280H43Z" />
<glyph unicode="_" glyph-name="underscore" horiz-adv-x="569" d="M-2 -125V-85H571V-125H-2Z" />
<glyph unicode="`" glyph-name="grave" horiz-adv-x="248" d="M83 810L205 577H159L18 810H83Z" />
<glyph unicode="a" glyph-name="a" horiz-adv-x="538" d="M263 530Q367 530 411 486T455 333V140Q455 70 470 0H424Q415 46 413 103H411Q384 51 333 21T215 -10Q141 -10 97 30T53 140Q53 228 130 277T351 327H408V332Q408 421 377 455T263 490Q166 490 88 444L76
482Q160 530 263 530ZM99 142Q99 90 132 59T223 28Q298 28 353 83T408 222V289H351Q230 289 165 250T99 142Z" />
<glyph unicode="b" glyph-name="b" horiz-adv-x="568" d="M310 -10Q182 -10 131 101H129L128 0H83V750H130V420H132Q185 530 310 530Q408 530 464 459T520 260T464 61T310 -10ZM474 151T474 260T428 429T301 490Q224 490 177 431T130 268V252Q130 146 177 88T301
30Q381 30 427 90Z" />
<glyph unicode="c" glyph-name="c" horiz-adv-x="514" d="M300 489Q202 489 147 429T91 260Q91 156 149 93T300 30Q369 30 432 63L446 25Q376 -10 298 -10Q184 -10 114 64T43 260Q43 386 111 458T298 530Q376 530 446 495L432 456Q369 489 300 489Z" />
<glyph unicode="d" glyph-name="d" horiz-adv-x="568" d="M94 369T94 260T140 91T266 30Q342 30 390 88T438 252V268Q438 371 391 430T266 490Q186 490 140 430ZM48 132T48 260T104 459T258 530Q383 530 436 420H438V750H485V0H440L439 101H437Q386 -10 258 -10Q161
-10 105 61Z" />
<glyph unicode="e" glyph-name="e" horiz-adv-x="544" d="M90 243Q91 143 145 86T291 29Q374 29 448 71L463 34Q382 -10 288 -10Q176 -10 110 62T43 260Q43 386 106 458T278 530Q382 530 439 461T496 265V243H90ZM91 283H450Q448 384 404 437T278 491Q192 491
143 437T91 283Z" />
<glyph unicode="f" glyph-name="f" horiz-adv-x="514" d="M58 500H201V578Q201 740 355 740Q399 740 441 725L430 686Q396 700 358 700Q299 700 274 672T249 578V500H438V460H249V0H201V460H58V500Z" />
<glyph unicode="g" glyph-name="g" horiz-adv-x="563" d="M265 50Q339 50 388 108T438 265V275Q438 373 389 431T265 490Q185 490 140 432T94 270Q94 168 140 109T265 50ZM48 270Q48 394 103 462T256 530Q384 530 437 420H439L440 520H485V37Q485 -230 253 -230Q168
-230 95 -197L107 -158Q178 -190 253 -190Q347 -190 392 -136T438 35V118H436Q384 10 256 10Q162 10 105 80T48 270Z" />
<glyph unicode="h" glyph-name="h" horiz-adv-x="563" d="M130 750V411H132Q161 466 208 498T313 530Q404 530 447 477T490 307V0H444V303Q444 405 412 447T301 489Q235 489 183 426T130 277V0H83V750H130Z" />
<glyph unicode="i" glyph-name="i" horiz-adv-x="295" d="M123 640V750H172V640H123ZM123 0V520H172V0H123Z" />
<glyph unicode="j" glyph-name="j" horiz-adv-x="334" d="M211 520V0Q211 -135 164 -182T-20 -230L-22 -189Q91 -189 127 -153T163 -2V520H211ZM163 640V750H211V640H163Z" />
<glyph unicode="k" glyph-name="k" horiz-adv-x="544" d="M130 750V293H132L427 520H491L168 272L496 0H433L132 251H130V0H83V750H130Z" />
<glyph unicode="l" glyph-name="l" horiz-adv-x="295" d="M123 0V750H172V0H123Z" />
<glyph unicode="m" glyph-name="m" horiz-adv-x="791" d="M123 520L124 419H126Q150 472 187 501T268 530Q376 530 409 421H411Q433 472 473 501T565 530Q643 530 680 482T718 330V0H672V320Q672 413 645 451T556 490Q501 490 461 439T421 310V0H375V320Q375 413
349 451T260 490Q210 490 168 430T125 283V0H78V520H123Z" />
<glyph unicode="n" glyph-name="n" horiz-adv-x="558" d="M296 489Q230 489 178 426T125 277V0H78V520H123L124 410H126Q153 465 201 497T308 530Q399 530 442 477T485 307V0H439V303Q439 405 407 447T296 489Z" />
<glyph unicode="o" glyph-name="o" horiz-adv-x="566" d="M372 490T283 490T142 429T90 260T142 92T283 30T424 91T476 260T424 428ZM393 -10T283 -10T108 63T43 260T108 457T283 530T458 457T523 260T458 63Z" />
<glyph unicode="p" glyph-name="p" horiz-adv-x="563" d="M305 -10Q178 -10 127 98H125V-220H78V520H123L124 419H126Q177 530 305 530Q403 530 459 459T515 260Q515 133 458 62T305 -10ZM469 151T469 260T423 429T296 490Q219 490 172 431T125 268V252Q125 147
173 89T296 30Q376 30 422 90Z" />
<glyph unicode="q" glyph-name="q" horiz-adv-x="563" d="M94 369T94 260T140 91T266 30Q342 30 390 88T438 252V268Q438 371 391 430T266 490Q186 490 140 430ZM48 260Q48 388 104 459T258 530Q386 530 437 419H439L440 520H485V-220H438V98H436Q385 -10 258
-10Q162 -10 105 61T48 260Z" />
<glyph unicode="r" glyph-name="r" horiz-adv-x="443" d="M124 520V397H126Q166 460 233 495T385 530V489Q273 489 199 426T125 267V0H78V520H124Z" />
<glyph unicode="s" glyph-name="s" horiz-adv-x="489" d="M241 530Q332 530 415 490L402 451Q324 490 241 490Q177 490 141 465T105 395Q105 355 134 330T244 290Q343 272 387 235T431 133Q431 67 381 29T241 -10Q143 -10 58 40L72 78Q151 30 241 30Q308 30 346
57T384 133Q384 179 351 205T238 247Q142 264 100 299T58 395T107 493T241 530Z" />
<glyph unicode="t" glyph-name="t" horiz-adv-x="504" d="M220 690V500H426V460H220V153Q220 78 242 54T323 30Q370 30 408 45L418 7Q370 -10 318 -10Q237 -10 205 24T173 147V460H53V500H173V690H220Z" />
<glyph unicode="u" glyph-name="u" horiz-adv-x="548" d="M119 520V193Q119 104 149 68T251 31Q315 31 369 93T423 243V520H470V0H425L424 110H422Q395 55 347 23T240 -10Q153 -10 113 37T73 190V520H119Z" />
<glyph unicode="v" glyph-name="v" horiz-adv-x="549" d="M90 520L274 31H276L461 520H511L308 0H241L38 520H90Z" />
<glyph unicode="w" glyph-name="w" horiz-adv-x="806" d="M99 520L236 43H238L370 520H437L569 43H571L708 520H758L601 0H536L404 474H402L270 0H205L48 520H99Z" />
<glyph unicode="x" glyph-name="x" horiz-adv-x="543" d="M114 520L271 297H273L430 520H485L300 264L490 0H434L272 231H270L107 0H53L243 264L58 520H114Z" />
<glyph unicode="y" glyph-name="y" horiz-adv-x="549" d="M89 520L267 63H269L461 520H511L191 -220H141L242 7L38 520H89Z" />
<glyph unicode="z" glyph-name="z" horiz-adv-x="539" d="M78 520H461V480L137 42V40H461V0H78V40L402 478V480H78V520Z" />
<glyph unicode="{" glyph-name="braceleft" horiz-adv-x="503" d="M410 730H336Q284 730 261 707T238 615V468Q238 359 166 324V322Q238 287 238 177V30Q238 -39 261 -62T336 -85H410V-125H320Q252 -125 222 -91T191 20V175Q191 235 170 268T110 302H63V343H110Q148
343 169 376T191 470V625Q191 701 221 735T320 770H410V730Z" />
<glyph unicode="|" glyph-name="bar" horiz-adv-x="323" d="M138 -220V810H185V-220H138Z" />
<glyph unicode="}" glyph-name="braceright" horiz-adv-x="503" d="M93 730V770H183Q251 770 281 736T311 625V470Q311 410 333 377T393 343H440V302H393Q355 302 333 269T311 175V20Q311 -56 281 -90T183 -125H93V-85H166Q218 -85 241 -62T265 30V177Q265 287
336 322V324Q265 359 265 468V615Q265 684 242 707T166 730H93Z" />
<glyph unicode="~" glyph-name="asciitilde" horiz-adv-x="686" d="M331 283Q223 332 177 332Q137 332 119 308T101 228H58Q58 376 172 376Q233 376 355 320Q463 271 509 271Q585 271 585 366H628Q628 292 596 260T514 228Q451 228 331 283Z" />
<glyph unicode="&#xa0;" glyph-name="uni00A0" horiz-adv-x="283" />
<glyph unicode="&#xa1;" glyph-name="exclamdown" horiz-adv-x="293" d="M123 323H170L175 -220H118L123 323ZM120 403V520H173V403H120Z" />
<glyph unicode="&#xa2;" glyph-name="cent" horiz-adv-x="540" d="M278 528V690H318V530Q395 529 467 494L457 455Q389 489 318 489V30Q393 31 457 64L472 26Q398 -9 318 -10V-180H278V-8Q172 3 108 75T43 260Q43 377 105 447T278 528ZM278 32V487Q190 476 141
417T91 260Q91 166 142 105T278 32Z" />
<glyph unicode="&#xa3;" glyph-name="sterling" horiz-adv-x="643" d="M164 45V43H565V0H78V43Q123 46 157 93T191 217V347H97V387H191V545Q191 638 246 689T405 740Q471 740 532 714L520 672Q469 696 409 696Q241 696 241 541V387H504V347H241V217Q241 159 220
113T164 45Z" />
<glyph unicode="&#xa4;" glyph-name="currency" horiz-adv-x="663" d="M572 634L600 605L504 509Q557 446 557 365T504 221L600 125L572 96L476 192Q415 140 332 140Q248 140 187 192L91 96L63 125L159 221Q107 282 107 365T159 509L63 605L91 634L187 538Q248
590 332 590Q415 590 476 538L572 634ZM257 183T332 183T460 236T513 365T460 493T332 547T204 494T150 365T203 237Z" />
<glyph unicode="&#xa5;" glyph-name="yen" horiz-adv-x="666" d="M85 163V200H307V310H85V347H288L38 730H97L333 362H335L570 730H628L378 347H581V310H359V200H581V163H359V0H307V163H85Z" />
<glyph unicode="&#xa6;" glyph-name="brokenbar" horiz-adv-x="323" d="M138 -140V220H185V-140H138ZM138 370V730H185V370H138Z" />
<glyph unicode="&#xa7;" glyph-name="section" horiz-adv-x="511" d="M70 582Q70 651 121 695T256 740Q348 740 434 695L420 654Q341 697 259 697Q194 697 156 666T117 582Q117 535 147 506T258 458Q358 436 403 395T448 285Q448 187 358 143Q440 101 440 8Q440
-62 390 -106T256 -150Q163 -150 77 -105L91 -64Q170 -107 252 -107Q318 -107 356 -76T394 8Q394 55 364 84T253 132Q153 154 108 195T63 305Q63 403 153 447Q70 490 70 582ZM197 429Q154 415 130 384T105 311Q105 257 140 226T260 176Q277 173 314 161Q357 175
381 206T406 279Q406 333 371 364T251 414Q234 417 197 429Z" />
<glyph unicode="&#xa8;" glyph-name="dieresis" horiz-adv-x="423" d="M288 610V733H335V610H288ZM88 610V733H135V610H88Z" />
<glyph unicode="&#xa9;" glyph-name="copyright" horiz-adv-x="819" d="M567 545L550 511Q496 545 430 545Q346 545 298 497T250 365Q250 282 299 234T430 185Q496 185 550 219L567 185Q508 148 427 148Q325 148 265 207T204 365Q204 466 264 524T427 582Q508
582 567 545ZM274 35T410 35T643 131T740 365T643 598T410 695T177 599T80 365T177 132ZM410 -2Q258 -2 151 105T43 365T150 624T410 732T669 625T776 365T669 106T410 -2Z" />
<glyph unicode="&#xaa;" glyph-name="ordfeminine" horiz-adv-x="645" d="M93 213V248H552V213H93ZM426 544H384Q290 544 239 514T187 431Q187 391 213 368T283 344Q345 344 385 384T426 485V544ZM144 429Q144 500 206 540T384 580H426V582Q426 651 403 676T316
702Q237 702 176 666L165 701Q234 740 317 740Q401 740 436 704T472 581V428Q472 372 484 316H440Q431 355 430 382H429Q380 307 275 307Q215 307 180 340T144 429Z" />
<glyph unicode="&#xab;" glyph-name="guillemotleft" horiz-adv-x="716" d="M618 481L388 291V289L618 99V50L355 270V310L618 530V481ZM331 481L102 291V289L331 99V50L68 270V310L331 530V481Z" />
<glyph unicode="&#xac;" glyph-name="logicalnot" horiz-adv-x="649" d="M63 382V423H556V157H511V382H63Z" />
<glyph unicode="&#xad;" glyph-name="uni00AD" horiz-adv-x="459" d="M83 268V312H376V268H83Z" />
<glyph unicode="&#xae;" glyph-name="registered" horiz-adv-x="819" d="M311 341V153H266V574Q315 582 386 582Q570 582 570 466Q570 376 460 356V355Q478 348 491 332T524 275L583 153H535L481 268Q455 320 439 330T372 341H311ZM311 377H373Q454 377 489 398T525
463Q525 546 384 546Q349 546 311 541V377ZM562 -2T410 -2T151 105T43 365T150 624T410 732T669 625T776 365T669 106ZM274 35T410 35T643 131T740 365T643 598T410 695T177 599T80 365T177 132Z" />
<glyph unicode="&#xaf;" glyph-name="overscore" horiz-adv-x="459" d="M63 657V697H396V657H63Z" />
<glyph unicode="&#xb0;" glyph-name="degree" horiz-adv-x="389" d="M48 532T48 593T91 697T195 740T298 697T341 593T299 490T195 447T91 489ZM88 637T88 593T119 518T195 487T270 518T301 593T270 668T195 700T120 669Z" />
<glyph unicode="&#xb1;" glyph-name="plusminus" horiz-adv-x="753" d="M93 -40V2H660V-40H93ZM398 650V388H660V346H398V83H355V346H93V388H355V650H398Z" />
<glyph unicode="&#xb2;" glyph-name="uni00B2" horiz-adv-x="375" d="M275 611Q275 654 251 677T182 700Q120 700 61 656L45 688Q73 709 112 722T186 736Q248 736 282 704T317 614Q317 559 274 500T108 329V328H322V292H52V328Q187 447 231 504T275 611Z" />
<glyph unicode="&#xb3;" glyph-name="uni00B3" horiz-adv-x="375" d="M56 730H316V694L162 546V545H182Q250 545 286 514T323 425Q323 286 169 286Q104 286 52 320L67 351Q113 322 166 322Q282 322 282 425Q282 464 257 488T158 513H115V549L265 693V694H56V730Z" />
<glyph unicode="&#xb4;" glyph-name="acute" horiz-adv-x="241" d="M93 590H43L160 753H223L93 590Z" />
<glyph unicode="&#xb5;" glyph-name="mu" horiz-adv-x="553" d="M428 520H475V0H430L429 93H427Q400 46 352 18T250 -10Q158 -10 124 50V-220H78V520H124V193Q124 104 154 68T256 31Q325 31 376 90T428 233V520Z" />
<glyph unicode="&#xb6;" glyph-name="paragraph" horiz-adv-x="606" d="M268 270Q173 270 106 337T38 500T105 662T268 730H518V-140H473V688H313V-140H268V270Z" />
<glyph unicode="&#xb7;" glyph-name="middot" horiz-adv-x="253" d="M98 225V355H155V225H98Z" />
<glyph unicode="&#xb8;" glyph-name="cedilla" horiz-adv-x="416" d="M247 0H297Q338 -48 338 -103Q338 -151 299 -185T168 -220Q103 -220 48 -195L58 -156Q106 -180 165 -180Q292 -180 292 -94Q292 -45 247 0Z" />
<glyph unicode="&#xb9;" glyph-name="uni00B9" horiz-adv-x="375" d="M196 680L79 568L61 601L196 730H239V292H196V680Z" />
<glyph unicode="&#xba;" glyph-name="ordmasculine" horiz-adv-x="645" d="M93 213V248H552V213H93ZM129 424T129 524T181 682T322 740T463 682T516 524T464 366T322 308T181 366ZM253 346T322 346T430 393T470 524T431 655T322 702T214 655T174 524T213 393Z" />
<glyph unicode="&#xbb;" glyph-name="guillemotright" horiz-adv-x="716" d="M98 481V530L361 310V270L98 50V99L328 289V291L98 481ZM385 481V530L648 310V270L385 50V99L614 289V291L385 481Z" />
<glyph unicode="&#xbc;" glyph-name="onequarter" horiz-adv-x="810" d="M163 680L46 568L28 601L163 730H206V292H163V680ZM708 730L191 0H143L660 730H708ZM702 106V0H663V106H442V142L663 438H702V142H775V106H702ZM663 142V380H662L485 143V142H663Z" />
<glyph unicode="&#xbd;" glyph-name="onehalf" horiz-adv-x="810" d="M724 319Q724 362 700 385T631 408Q568 408 509 364L493 396Q521 417 560 430T634 444Q695 444 730 411T765 321Q765 266 722 207T556 37V36H770V0H500V36Q635 156 679 213T724 319ZM163 680L46
568L28 601L163 730H206V292H163V680ZM675 730L158 0H109L626 730H675Z" />
<glyph unicode="&#xbe;" glyph-name="threequarters" horiz-adv-x="810" d="M184 545Q252 545 288 514T325 425Q325 286 171 286Q106 286 54 320L69 351Q115 322 168 322Q284 322 284 425Q284 464 259 488T160 513H117V549L267 693V694H58V730H319V694L164 546V545H184ZM714
730L197 0H149L666 730H714ZM702 106V0H662V106H442V142L662 438H702V142H774V106H702ZM662 142V380H661L485 143V142H662Z" />
<glyph unicode="&#xbf;" glyph-name="questiondown" horiz-adv-x="608" d="M331 403V520H385V403H331ZM383 322Q383 285 374 253T353 200T319 157T281 124T237 93Q206 72 192 61T157 28T129 -16T120 -70Q120 -125 170 -155T315 -186Q418 -186 529 -151L540 -195Q431
-230 310 -230Q195 -230 132 -188T68 -73Q68 -37 78 -8T111 45T150 82T199 118Q233 141 250 155T290 194T323 250T333 322H383Z" />
<glyph unicode="&#xc0;" glyph-name="Agrave" horiz-adv-x="683" d="M267 953L383 790H333L203 953H267ZM38 0L311 730H371L645 0H591L507 231H174L90 0H38ZM190 273H492L342 686H340L190 273Z" />
<glyph unicode="&#xc1;" glyph-name="Aacute" horiz-adv-x="683" d="M416 953H479L349 790H299L416 953ZM38 0L311 730H371L645 0H591L507 231H174L90 0H38ZM190 273H492L342 686H340L190 273Z" />
<glyph unicode="&#xc2;" glyph-name="Acircumflex" horiz-adv-x="683" d="M340 929L222 790H163L306 953H376L520 790H461L342 929H340ZM38 0L311 730H371L645 0H591L507 231H174L90 0H38ZM190 273H492L342 686H340L190 273Z" />
<glyph unicode="&#xc3;" glyph-name="Atilde" horiz-adv-x="683" d="M475 920H516Q516 805 443 805Q401 805 333 852Q277 891 247 891Q208 891 208 805H166Q166 930 240 930Q283 930 349 884Q406 844 436 844Q475 844 475 920ZM38 0L311 730H371L645 0H591L507
231H174L90 0H38ZM190 273H492L342 686H340L190 273Z" />
<glyph unicode="&#xc4;" glyph-name="Adieresis" horiz-adv-x="683" d="M418 810V933H465V810H418ZM218 810V933H265V810H218ZM38 0L311 730H371L645 0H591L507 231H174L90 0H38ZM190 273H492L342 686H340L190 273Z" />
<glyph unicode="&#xc5;" glyph-name="Aring" horiz-adv-x="683" d="M376 968T341 968T282 944T258 885T282 826T341 802T400 826T425 885T401 943ZM38 0L311 730H371L645 0H591L507 231H174L90 0H38ZM458 933T458 885T424 803T341 768T259 802T225 885T259 967T341
1002T423 968ZM190 273H492L342 686H340L190 273Z" />
<glyph unicode="&#xc6;" glyph-name="AE" horiz-adv-x="838" d="M311 730H760V687H455V417H740V375H455V43H760V0H406V231H173L89 0H38L311 730ZM188 273H406V687H339L188 273Z" />
<glyph unicode="&#xc7;" glyph-name="Ccedilla" horiz-adv-x="691" d="M403 697Q261 697 178 607T94 365Q94 214 179 124T403 33Q512 33 604 93L623 54Q544 1 439 -8Q474 -53 474 -103Q474 -151 435 -185T304 -220Q239 -220 184 -195L193 -156Q241 -180 300 -180Q427
-180 427 -94Q427 -50 392 -10Q233 -8 138 94T43 365Q43 538 139 639T400 740Q528 740 623 676L604 637Q514 697 403 697Z" />
<glyph unicode="&#xc8;" glyph-name="Egrave" horiz-adv-x="579" d="M253 953L370 790H320L190 953H253ZM138 687V417H481V375H138V43H501V0H88V730H501V687H138Z" />
<glyph unicode="&#xc9;" glyph-name="Eacute" horiz-adv-x="579" d="M276 790H226L343 953H406L276 790ZM138 687V417H481V375H138V43H501V0H88V730H501V687H138Z" />
<glyph unicode="&#xca;" glyph-name="Ecircumflex" horiz-adv-x="579" d="M297 929L179 790H120L263 953H333L476 790H417L299 929H297ZM138 687V417H481V375H138V43H501V0H88V730H501V687H138Z" />
<glyph unicode="&#xcb;" glyph-name="Edieresis" horiz-adv-x="579" d="M375 810V933H421V810H375ZM175 810V933H221V810H175ZM138 687V417H481V375H138V43H501V0H88V730H501V687H138Z" />
<glyph unicode="&#xcc;" glyph-name="Igrave" horiz-adv-x="300" d="M60 953L177 790H127L-3 953H60ZM124 0V730H177V0H124Z" />
<glyph unicode="&#xcd;" glyph-name="Iacute" horiz-adv-x="300" d="M173 790H123L240 953H303L173 790ZM123 0V730H176V0H123Z" />
<glyph unicode="&#xce;" glyph-name="Icircumflex" horiz-adv-x="299" d="M148 929L30 790H-29L114 953H184L328 790H269L150 929H148ZM123 0V730H176V0H123Z" />
<glyph unicode="&#xcf;" glyph-name="Idieresis" horiz-adv-x="301" d="M227 810V933H274V810H227ZM27 810V933H74V810H27ZM124 0V730H177V0H124Z" />
<glyph unicode="&#xd0;" glyph-name="Eth" horiz-adv-x="745" d="M38 362V404H159V724Q235 740 322 740Q506 740 604 646T702 375Q702 187 604 89T322 -10Q233 -10 159 6V362H38ZM209 404H408V362H209V45Q269 33 322 33Q485 33 569 120T654 375Q654 533 570 615T322
697Q269 697 209 685V404Z" />
<glyph unicode="&#xd1;" glyph-name="Ntilde" horiz-adv-x="703" d="M359 884Q416 844 446 844Q485 844 485 920H526Q526 805 453 805Q411 805 343 852Q287 891 257 891Q218 891 218 805H176Q176 930 250 930Q293 930 359 884ZM88 0V730H145L563 76H565V730H615V0H557L139
654H137V0H88Z" />
<glyph unicode="&#xd2;" glyph-name="Ograve" horiz-adv-x="793" d="M322 953L438 790H388L258 953H322ZM555 -10T396 -10T140 93T43 365T140 637T396 740T652 637T750 365T653 93ZM260 33T396 33T615 124T699 365T616 606T396 697T177 606T94 365T177 124Z" />
<glyph unicode="&#xd3;" glyph-name="Oacute" horiz-adv-x="793" d="M404 790H354L471 953H534L404 790ZM555 -10T396 -10T140 93T43 365T140 637T396 740T652 637T750 365T653 93ZM260 33T396 33T615 124T699 365T616 606T396 697T177 606T94 365T177 124Z" />
<glyph unicode="&#xd4;" glyph-name="Ocircumflex" horiz-adv-x="793" d="M395 929L277 790H218L361 953H431L575 790H516L397 929H395ZM555 -10T396 -10T140 93T43 365T140 637T396 740T652 637T750 365T653 93ZM260 33T396 33T615 124T699 365T616 606T396 697T177
606T94 365T177 124Z" />
<glyph unicode="&#xd5;" glyph-name="Otilde" horiz-adv-x="793" d="M295 930Q338 930 404 884Q461 844 490 844Q530 844 530 920H571Q571 805 498 805Q456 805 388 852Q332 891 302 891Q263 891 263 805H221Q221 930 295 930ZM555 -10T396 -10T140 93T43 365T140
637T396 740T652 637T750 365T653 93ZM260 33T396 33T615 124T699 365T616 606T396 697T177 606T94 365T177 124Z" />
<glyph unicode="&#xd6;" glyph-name="Odieresis" horiz-adv-x="793" d="M473 810V933H520V810H473ZM273 810V933H320V810H273ZM555 -10T396 -10T140 93T43 365T140 637T396 740T652 637T750 365T653 93ZM260 33T396 33T615 124T699 365T616 606T396 697T177 606T94
365T177 124Z" />
<glyph unicode="&#xd7;" glyph-name="multiply" horiz-adv-x="595" d="M547 73L515 41L297 258L80 41L48 73L265 290L48 507L80 539L297 322L515 539L547 507L329 290L547 73Z" />
<glyph unicode="&#xd8;" glyph-name="Oslash" horiz-adv-x="803" d="M48 365Q48 534 145 637T401 740Q522 740 608 680L663 753L699 727L643 651Q755 547 755 365Q755 196 658 93T401 -10Q280 -10 194 50L139 -23L103 3L159 79Q48 182 48 365ZM222 88Q297 33 401
33Q537 33 620 124T704 365Q704 521 614 613L222 88ZM188 117L580 642Q505 697 401 697Q265 697 182 606T99 365Q99 208 188 117Z" />
<glyph unicode="&#xd9;" glyph-name="Ugrave" horiz-adv-x="673" d="M292 953L408 790H358L228 953H292ZM129 34T337 34T545 277V730H595V278Q595 138 528 64T336 -10T145 63T78 278V730H129V277Q129 34 337 34Z" />
<glyph unicode="&#xda;" glyph-name="Uacute" horiz-adv-x="673" d="M314 790H264L381 953H444L314 790ZM129 34T337 34T545 277V730H595V278Q595 138 528 64T336 -10T145 63T78 278V730H129V277Q129 34 337 34Z" />
<glyph unicode="&#xdb;" glyph-name="Ucircumflex" horiz-adv-x="673" d="M335 929L217 790H158L301 953H371L515 790H456L337 929H335ZM129 34T337 34T545 277V730H595V278Q595 138 528 64T336 -10T145 63T78 278V730H129V277Q129 34 337 34Z" />
<glyph unicode="&#xdc;" glyph-name="Udieresis" horiz-adv-x="673" d="M413 810V933H460V810H413ZM213 810V933H260V810H213ZM129 34T337 34T545 277V730H595V278Q595 138 528 64T336 -10T145 63T78 278V730H129V277Q129 34 337 34Z" />
<glyph unicode="&#xdd;" glyph-name="Yacute" horiz-adv-x="656" d="M306 790H256L373 953H436L306 790ZM92 730L328 362H330L565 730H623L354 318V0H302V318L33 730H92Z" />
<glyph unicode="&#xde;" glyph-name="Thorn" horiz-adv-x="596" d="M499 305T499 393T441 526T271 572Q204 572 138 561V219Q201 210 271 210Q381 210 440 257ZM138 176V0H88V730H138V605Q204 615 275 615Q408 615 478 559T548 397Q548 287 478 228T275 168Q207
168 138 176Z" />
<glyph unicode="&#xdf;" glyph-name="germandbls" horiz-adv-x="583" d="M374 422T374 412T400 375T457 319T514 245T540 158Q540 76 492 33T352 -10Q282 -10 199 13L205 56Q284 34 348 34Q490 34 490 163Q490 198 464 237T406 306T348 365T322 412Q322 430 353
466T415 546T447 628Q447 718 295 718Q203 718 168 682T133 550V0H83V549Q83 664 130 712T293 760Q495 760 495 632Q495 598 476 560T435 496T393 446Z" />
<glyph unicode="&#xe0;" glyph-name="agrave" horiz-adv-x="538" d="M200 753L317 590H267L137 753H200ZM263 530Q367 530 411 486T455 333V140Q455 70 470 0H424Q415 46 413 103H411Q384 51 333 21T215 -10Q141 -10 97 30T53 140Q53 228 130 277T351 327H408V332Q408
421 377 455T263 490Q166 490 88 444L76 482Q160 530 263 530ZM99 142Q99 90 132 59T223 28Q298 28 353 83T408 222V289H351Q230 289 165 250T99 142Z" />
<glyph unicode="&#xe1;" glyph-name="aacute" horiz-adv-x="538" d="M349 753H413L283 590H233L349 753ZM263 530Q367 530 411 486T455 333V140Q455 70 470 0H424Q415 46 413 103H411Q384 51 333 21T215 -10Q141 -10 97 30T53 140Q53 228 130 277T351 327H408V332Q408
421 377 455T263 490Q166 490 88 444L76 482Q160 530 263 530ZM99 142Q99 90 132 59T223 28Q298 28 353 83T408 222V289H351Q230 289 165 250T99 142Z" />
<glyph unicode="&#xe2;" glyph-name="acircumflex" horiz-adv-x="538" d="M274 729L155 590H96L240 753H310L453 590H394L276 729H274ZM263 530Q367 530 411 486T455 333V140Q455 70 470 0H424Q415 46 413 103H411Q384 51 333 21T215 -10Q141 -10 97 30T53 140Q53
228 130 277T351 327H408V332Q408 421 377 455T263 490Q166 490 88 444L76 482Q160 530 263 530ZM99 142Q99 90 132 59T223 28Q298 28 353 83T408 222V289H351Q230 289 165 250T99 142Z" />
<glyph unicode="&#xe3;" glyph-name="atilde" horiz-adv-x="538" d="M282 674Q339 634 369 634Q408 634 408 710H450Q450 595 376 595Q334 595 266 642Q210 681 180 681Q141 681 141 595H100Q100 720 173 720Q216 720 282 674ZM263 530Q367 530 411 486T455 333V140Q455
70 470 0H424Q415 46 413 103H411Q384 51 333 21T215 -10Q141 -10 97 30T53 140Q53 228 130 277T351 327H408V332Q408 421 377 455T263 490Q166 490 88 444L76 482Q160 530 263 530ZM99 142Q99 90 132 59T223 28Q298 28 353 83T408 222V289H351Q230 289 165 250T99
142Z" />
<glyph unicode="&#xe4;" glyph-name="adieresis" horiz-adv-x="538" d="M351 610V733H398V610H351ZM151 610V733H198V610H151ZM263 530Q367 530 411 486T455 333V140Q455 70 470 0H424Q415 46 413 103H411Q384 51 333 21T215 -10Q141 -10 97 30T53 140Q53 228
130 277T351 327H408V332Q408 421 377 455T263 490Q166 490 88 444L76 482Q160 530 263 530ZM99 142Q99 90 132 59T223 28Q298 28 353 83T408 222V289H351Q230 289 165 250T99 142Z" />
<glyph unicode="&#xe5;" glyph-name="aring" horiz-adv-x="538" d="M310 758T275 758T216 734T191 675T215 617T275 592T334 616T358 675T334 734ZM263 530Q367 530 411 486T455 333V140Q455 70 470 0H424Q415 46 413 103H411Q384 51 333 21T215 -10Q141 -10 97
30T53 140Q53 228 130 277T351 327H408V332Q408 421 377 455T263 490Q166 490 88 444L76 482Q160 530 263 530ZM391 723T391 675T357 593T275 558T193 592T158 675T192 757T275 792T357 758ZM99 142Q99 90 132 59T223 28Q298 28 353 83T408 222V289H351Q230 289
165 250T99 142Z" />
<glyph unicode="&#xe6;" glyph-name="ae" horiz-adv-x="883" d="M456 283H789Q788 384 746 437T626 491T504 437T456 283ZM456 243Q457 145 507 87T640 29Q718 29 789 71L805 34Q727 -10 636 -10Q564 -10 511 28T432 134Q381 -10 215 -10Q141 -10 97 30T53 140Q53
220 132 273T351 327H410V329Q407 425 375 457T263 490Q166 490 88 444L76 482Q160 530 263 530Q342 530 385 505T444 420Q500 530 626 530Q726 530 780 462T835 265Q835 262 835 254T834 243H456ZM99 142Q99 90 132 59T223 28Q314 28 362 88T411 265Q411 266 411
277T410 289H351Q234 289 167 247T99 142Z" />
<glyph unicode="&#xe7;" glyph-name="ccedilla" horiz-adv-x="514" d="M432 63L446 25Q401 2 352 -6Q389 -53 389 -103Q389 -151 350 -185T219 -220Q154 -220 99 -195L108 -156Q156 -180 215 -180Q342 -180 342 -94Q342 -50 307 -10H298Q184 -10 114 64T43 260Q43
386 111 458T298 530Q376 530 446 495L432 456Q369 489 300 489Q202 489 147 429T91 260Q91 156 149 93T300 30Q369 30 432 63Z" />
<glyph unicode="&#xe8;" glyph-name="egrave" horiz-adv-x="544" d="M235 753L352 590H302L172 753H235ZM90 243Q91 143 145 86T291 29Q374 29 448 71L463 34Q382 -10 288 -10Q176 -10 110 62T43 260Q43 386 106 458T278 530Q382 530 439 461T496 265V243H90ZM91
283H450Q448 384 404 437T278 491Q192 491 143 437T91 283Z" />
<glyph unicode="&#xe9;" glyph-name="eacute" horiz-adv-x="544" d="M258 590H208L324 753H388L258 590ZM90 243Q91 143 145 86T291 29Q374 29 448 71L463 34Q382 -10 288 -10Q176 -10 110 62T43 260Q43 386 106 458T278 530Q382 530 439 461T496 265V243H90ZM91
283H450Q448 384 404 437T278 491Q192 491 143 437T91 283Z" />
<glyph unicode="&#xea;" glyph-name="ecircumflex" horiz-adv-x="544" d="M279 729L160 590H101L245 753H315L458 590H399L281 729H279ZM90 243Q91 143 145 86T291 29Q374 29 448 71L463 34Q382 -10 288 -10Q176 -10 110 62T43 260Q43 386 106 458T278 530Q382
530 439 461T496 265V243H90ZM91 283H450Q448 384 404 437T278 491Q192 491 143 437T91 283Z" />
<glyph unicode="&#xeb;" glyph-name="edieresis" horiz-adv-x="544" d="M356 610V733H403V610H356ZM156 610V733H203V610H156ZM90 243Q91 143 145 86T291 29Q374 29 448 71L463 34Q382 -10 288 -10Q176 -10 110 62T43 260Q43 386 106 458T278 530Q382 530 439
461T496 265V243H90ZM91 283H450Q448 384 404 437T278 491Q192 491 143 437T91 283Z" />
<glyph unicode="&#xec;" glyph-name="igrave" horiz-adv-x="300" d="M60 753L177 590H127L-3 753H60ZM128 0V520H177V0H128Z" />
<glyph unicode="&#xed;" glyph-name="iacute" horiz-adv-x="300" d="M173 590H123L240 753H303L173 590ZM123 0V520H172V0H123Z" />
<glyph unicode="&#xee;" glyph-name="icircumflex" horiz-adv-x="295" d="M148 729H146L28 590H-31L112 753H182L326 590H267L148 729ZM123 0V520H172V0H123Z" />
<glyph unicode="&#xef;" glyph-name="idieresis" horiz-adv-x="295" d="M224 610V733H271V610H224ZM24 610V733H71V610H24ZM123 0V520H172V0H123Z" />
<glyph unicode="&#xf0;" glyph-name="eth" horiz-adv-x="551" d="M275 30Q346 30 401 93T456 260Q456 367 408 427T275 488T143 428T95 260Q95 154 147 92T275 30ZM275 -10Q178 -10 113 63T48 260Q48 381 109 454T275 527Q365 527 422 464L424 465Q389 563 316
624L136 544L121 578L281 649Q218 688 135 700L147 740Q252 725 329 669L470 732L484 698L360 644Q503 513 503 260Q503 138 436 64T275 -10Z" />
<glyph unicode="&#xf1;" glyph-name="ntilde" horiz-adv-x="558" d="M176 720Q220 720 286 674Q343 634 372 634Q411 634 411 710H453Q453 595 380 595Q337 595 269 642Q213 681 184 681Q145 681 145 595H103Q103 720 176 720ZM296 489Q230 489 178 426T125 277V0H78V520H123L124
410H126Q153 465 201 497T308 530Q399 530 442 477T485 307V0H439V303Q439 405 407 447T296 489Z" />
<glyph unicode="&#xf2;" glyph-name="ograve" horiz-adv-x="566" d="M208 753L325 590H275L145 753H208ZM372 490T283 490T142 429T90 260T142 92T283 30T424 91T476 260T424 428ZM393 -10T283 -10T108 63T43 260T108 457T283 530T458 457T523 260T458 63Z" />
<glyph unicode="&#xf3;" glyph-name="oacute" horiz-adv-x="566" d="M291 590H241L358 753H421L291 590ZM372 490T283 490T142 429T90 260T142 92T283 30T424 91T476 260T424 428ZM393 -10T283 -10T108 63T43 260T108 457T283 530T458 457T523 260T458 63Z" />
<glyph unicode="&#xf4;" glyph-name="ocircumflex" horiz-adv-x="566" d="M282 729L164 590H105L248 753H318L461 590H402L284 729H282ZM372 490T283 490T142 429T90 260T142 92T283 30T424 91T476 260T424 428ZM393 -10T283 -10T108 63T43 260T108 457T283 530T458
457T523 260T458 63Z" />
<glyph unicode="&#xf5;" glyph-name="otilde" horiz-adv-x="566" d="M181 720Q224 720 290 674Q347 634 377 634Q416 634 416 710H458Q458 595 385 595Q342 595 274 642Q218 681 189 681Q150 681 150 595H108Q108 720 181 720ZM372 490T283 490T142 429T90 260T142
92T283 30T424 91T476 260T424 428ZM393 -10T283 -10T108 63T43 260T108 457T283 530T458 457T523 260T458 63Z" />
<glyph unicode="&#xf6;" glyph-name="odieresis" horiz-adv-x="566" d="M360 610V733H406V610H360ZM160 610V733H206V610H160ZM372 490T283 490T142 429T90 260T142 92T283 30T424 91T476 260T424 428ZM393 -10T283 -10T108 63T43 260T108 457T283 530T458 457T523
260T458 63Z" />
<glyph unicode="&#xf7;" glyph-name="divide" horiz-adv-x="733" d="M340 0V123H393V0H340ZM340 457V580H393V457H340ZM83 269V311H650V269H83Z" />
<glyph unicode="&#xf8;" glyph-name="oslash" horiz-adv-x="576" d="M48 260Q48 384 113 457T288 530Q373 530 432 486L473 541L503 519L460 461Q528 388 528 260Q528 136 463 63T288 -10Q203 -10 144 34L103 -21L73 1L116 59Q48 132 48 260ZM170 69Q216 30 288
30Q377 30 429 91T481 260Q481 362 432 424L170 69ZM144 96L406 451Q359 490 288 490Q199 490 147 429T95 260Q95 158 144 96Z" />
<glyph unicode="&#xf9;" glyph-name="ugrave" horiz-adv-x="548" d="M232 753L348 590H298L168 753H232ZM119 520V193Q119 104 149 68T251 31Q315 31 369 93T423 243V520H470V0H425L424 110H422Q395 55 347 23T240 -10Q153 -10 113 37T73 190V520H119Z" />
<glyph unicode="&#xfa;" glyph-name="uacute" horiz-adv-x="548" d="M254 590H204L321 753H384L254 590ZM119 520V193Q119 104 149 68T251 31Q315 31 369 93T423 243V520H470V0H425L424 110H422Q395 55 347 23T240 -10Q153 -10 113 37T73 190V520H119Z" />
<glyph unicode="&#xfb;" glyph-name="ucircumflex" horiz-adv-x="548" d="M157 590H98L241 753H311L455 590H396L277 729H275L157 590ZM119 520V193Q119 104 149 68T251 31Q315 31 369 93T423 243V520H470V0H425L424 110H422Q395 55 347 23T240 -10Q153 -10 113
37T73 190V520H119Z" />
<glyph unicode="&#xfc;" glyph-name="udieresis" horiz-adv-x="548" d="M353 610V733H400V610H353ZM153 610V733H200V610H153ZM119 520V193Q119 104 149 68T251 31Q315 31 369 93T423 243V520H470V0H425L424 110H422Q395 55 347 23T240 -10Q153 -10 113 37T73
190V520H119Z" />
<glyph unicode="&#xfd;" glyph-name="yacute" horiz-adv-x="549" d="M249 590H199L316 753H379L249 590ZM267 63H269L461 520H511L191 -220H141L242 7L38 520H89L267 63Z" />
<glyph unicode="&#xfe;" glyph-name="thorn" horiz-adv-x="563" d="M127 98H125V-220H78V750H125V419H127Q178 530 305 530Q403 530 459 459T515 260Q515 133 458 62T305 -10Q178 -10 127 98ZM469 151T469 260T423 429T296 490Q219 490 172 431T125 268V252Q125
147 173 89T296 30Q376 30 422 90Z" />
<glyph unicode="&#xff;" glyph-name="ydieresis" horiz-adv-x="549" d="M348 610V733H395V610H348ZM148 610V733H195V610H148ZM267 63H269L461 520H511L191 -220H141L242 7L38 520H89L267 63Z" />
<glyph unicode="&#x2013;" glyph-name="endash" horiz-adv-x="471" d="M-2 272V308H473V272H-2Z" />
<glyph unicode="&#x2014;" glyph-name="emdash" horiz-adv-x="946" d="M-2 272V308H948V272H-2Z" />
<glyph unicode="&#x2018;" glyph-name="quoteleft" horiz-adv-x="259" d="M109 537H48L138 770H186L109 537Z" />
<glyph unicode="&#x2019;" glyph-name="quoteright" horiz-adv-x="259" d="M211 770L121 537H73L150 770H211Z" />
<glyph unicode="&#x201a;" glyph-name="quotesinglbase" horiz-adv-x="274" d="M140 123H201L111 -110H63L140 123Z" />
<glyph unicode="&#x201c;" glyph-name="quotedblleft" horiz-adv-x="418" d="M350 770L273 537H215L305 770H350ZM101 537H43L133 770H177L101 537Z" />
<glyph unicode="&#x201d;" glyph-name="quotedblright" horiz-adv-x="418" d="M285 537H240L317 770H375L285 537ZM112 537H68L145 770H202L112 537Z" />
<glyph unicode="&#x201e;" glyph-name="quotedblbase" horiz-adv-x="433" d="M275 -110H230L307 123H365L275 -110ZM102 -110H58L135 123H192L102 -110Z" />
<glyph unicode="&#x2022;" glyph-name="bullet" horiz-adv-x="429" d="M251 278T215 278T154 303T128 365T153 426T215 452T276 427T301 365T276 304Z" />
<glyph unicode="&#x2039;" glyph-name="guilsinglleft" horiz-adv-x="369" d="M281 83H228L68 290L228 497H281L120 290L281 83Z" />
<glyph unicode="&#x203a;" glyph-name="guilsinglright" horiz-adv-x="369" d="M88 83L249 290L88 497H141L301 290L141 83H88Z" />
</font>
</defs>
</svg>
